<svg width="23" height="27" viewBox="0 0 23 27" fill="none" xmlns="http://www.w3.org/2000/svg">
<g clip-path="url(#clip0_29_2)">
<path d="M4.0588 -1.58823V1.58824H1.35292V4.76471H-1.35297V6.35295H1.35292V7.94119H-1.35297V9.52942H1.35292V11.1177H-1.35297V12.7059H1.35292V14.2941H-1.35297V15.8824H1.35292V17.4706H-1.35297V19.0588H1.35292V20.6471H-1.35297V22.2353H1.35292V25.4118H4.0588V28.5882H5.41174V25.4118H6.76468V28.5882H8.11762V25.4118H9.47056V28.5882H10.8235V25.4118H12.1764V28.5882H13.5294V25.4118H14.8823V28.5882H16.2353V25.4118H17.5882V28.5882H18.9412V25.4118H21.647V22.2353H24.3529V20.6471H21.647V19.0588H24.3529V17.4706H21.647V15.8824H24.3529V14.2941H21.647V12.7059H24.3529V11.1177H21.647V9.52942H24.3529V7.94119H21.647V6.35295H24.3529V4.76471H21.647V3.9706L19.6176 1.58824H18.9412V-1.58823H17.5882V1.58824H16.2353V-1.58823H14.8823V1.58824H13.5294V-1.58823H12.1764V1.58824H10.8235V-1.58823H9.47056V1.58824H8.11762V-1.58823H6.76468V1.58824H5.41174V-1.58823H4.0588ZM2.70586 3.17648H18.9412L20.2941 4.76471V23.8235H2.70586V3.17648Z" fill="white"/>
<path d="M5.70215 2.75L5.51221 2.03418H5.60937L5.71826 2.50342C5.72998 2.55257 5.74007 2.6014 5.74854 2.6499C5.76676 2.5734 5.77751 2.5293 5.78076 2.51758L5.91699 2.03418H6.03125L6.13379 2.39648C6.15951 2.48633 6.17806 2.5708 6.18945 2.6499C6.19857 2.60465 6.21045 2.55273 6.2251 2.49414L6.3374 2.03418H6.43262L6.23633 2.75H6.14502L5.99414 2.20459C5.98145 2.15902 5.97396 2.13102 5.97168 2.12061C5.96419 2.15348 5.95719 2.18148 5.95068 2.20459L5.79883 2.75H5.70215ZM6.51074 2.13525L6.51074 2.03418H6.59863L6.59863 2.13525H6.51074ZM6.51074 2.75L6.51074 2.23145H6.59863L6.59863 2.75H6.51074ZM6.73193 2.75L6.73193 2.23145H6.81104L6.81104 2.31006C6.83122 2.27327 6.84977 2.24902 6.8667 2.2373C6.88395 2.22559 6.90283 2.21973 6.92334 2.21973C6.95296 2.21973 6.98307 2.22917 7.01367 2.24805L6.9834 2.32959C6.96191 2.31689 6.94043 2.31055 6.91895 2.31055C6.89974 2.31055 6.88249 2.31641 6.86719 2.32812C6.85189 2.33952 6.84098 2.35547 6.83447 2.37598C6.82471 2.40723 6.81982 2.44141 6.81982 2.47852L6.81982 2.75H6.73193ZM7.25781 2.67139L7.27051 2.74902C7.24577 2.75423 7.22363 2.75684 7.2041 2.75684C7.1722 2.75684 7.14746 2.75179 7.12988 2.7417C7.1123 2.73161 7.09993 2.71842 7.09277 2.70215C7.08561 2.68555 7.08203 2.65088 7.08203 2.59814L7.08203 2.2998H7.01758L7.01758 2.23145L7.08203 2.23145L7.08203 2.10303L7.16943 2.05029L7.16943 2.23145H7.25781L7.25781 2.2998L7.16943 2.2998L7.16943 2.60303C7.16943 2.62809 7.1709 2.64421 7.17383 2.65137C7.17708 2.65853 7.18213 2.66423 7.18896 2.66846C7.19613 2.67269 7.20622 2.6748 7.21924 2.6748C7.229 2.6748 7.24186 2.67367 7.25781 2.67139ZM7.30908 2.59521L7.396 2.58154C7.40088 2.61637 7.41439 2.64307 7.43652 2.66162C7.45898 2.68018 7.49023 2.68945 7.53027 2.68945C7.57064 2.68945 7.60059 2.68132 7.62012 2.66504C7.63965 2.64844 7.64941 2.62907 7.64941 2.60693C7.64941 2.58708 7.64079 2.57145 7.62354 2.56006C7.61149 2.55225 7.58154 2.54232 7.53369 2.53027C7.46924 2.514 7.42448 2.5 7.39941 2.48828C7.37467 2.47624 7.35579 2.4598 7.34277 2.43896C7.33008 2.41781 7.32373 2.39453 7.32373 2.36914C7.32373 2.34603 7.32894 2.32471 7.33936 2.30518C7.3501 2.28532 7.36458 2.26888 7.38281 2.25586C7.39648 2.24577 7.41504 2.2373 7.43848 2.23047C7.46224 2.22331 7.48763 2.21973 7.51465 2.21973C7.55534 2.21973 7.59098 2.22559 7.62158 2.2373C7.65251 2.24902 7.67529 2.26497 7.68994 2.28516C7.70459 2.30501 7.71468 2.33171 7.72021 2.36523L7.63428 2.37695C7.63037 2.35026 7.61898 2.32943 7.6001 2.31445C7.58154 2.29948 7.55518 2.29199 7.521 2.29199C7.48063 2.29199 7.45182 2.29867 7.43457 2.31201C7.41732 2.32536 7.40869 2.34098 7.40869 2.35889C7.40869 2.37028 7.41227 2.38053 7.41943 2.38965C7.4266 2.39909 7.43783 2.4069 7.45312 2.41309C7.46191 2.41634 7.48779 2.42383 7.53076 2.43555C7.59294 2.45215 7.63623 2.46582 7.66064 2.47656C7.68538 2.48698 7.70475 2.50228 7.71875 2.52246C7.73275 2.54264 7.73975 2.56771 7.73975 2.59766C7.73975 2.62695 7.73112 2.65462 7.71387 2.68066C7.69694 2.70638 7.67236 2.7264 7.64014 2.74072C7.60791 2.75472 7.57145 2.76172 7.53076 2.76172C7.46338 2.76172 7.41195 2.74772 7.37646 2.71973C7.34131 2.69173 7.31885 2.65023 7.30908 2.59521ZM8.18262 2.56006L8.26904 2.57129C8.2596 2.63086 8.23535 2.67757 8.19629 2.71143C8.15755 2.74495 8.10986 2.76172 8.05322 2.76172C7.98226 2.76172 7.92513 2.73861 7.88184 2.69238C7.83887 2.64583 7.81738 2.57926 7.81738 2.49268C7.81738 2.43669 7.82666 2.3877 7.84521 2.3457C7.86377 2.30371 7.89193 2.2723 7.92969 2.25146C7.96777 2.23031 8.00911 2.21973 8.05371 2.21973C8.11003 2.21973 8.15609 2.23405 8.19189 2.2627C8.2277 2.29102 8.25065 2.33138 8.26074 2.38379L8.17529 2.39697C8.16715 2.36214 8.15267 2.33594 8.13184 2.31836C8.11133 2.30078 8.08643 2.29199 8.05713 2.29199C8.01286 2.29199 7.97689 2.30794 7.94922 2.33984C7.92155 2.37142 7.90771 2.42155 7.90771 2.49023C7.90771 2.5599 7.92106 2.61051 7.94775 2.64209C7.97445 2.67367 8.00928 2.68945 8.05225 2.68945C8.08675 2.68945 8.11556 2.67887 8.13867 2.65771C8.16178 2.63656 8.17643 2.604 8.18262 2.56006ZM8.34424 2.75L8.34424 2.03418H8.43213L8.43213 2.29102C8.47314 2.24349 8.5249 2.21973 8.5874 2.21973C8.62581 2.21973 8.65918 2.22738 8.6875 2.24268C8.71582 2.25765 8.736 2.27848 8.74805 2.30518C8.76042 2.33187 8.7666 2.37061 8.7666 2.42139L8.7666 2.75H8.67871L8.67871 2.42139C8.67871 2.37744 8.66911 2.34554 8.6499 2.32568C8.63102 2.3055 8.60417 2.29541 8.56934 2.29541C8.54329 2.29541 8.51872 2.30225 8.49561 2.31592C8.47282 2.32926 8.45654 2.34749 8.44678 2.37061C8.43701 2.39372 8.43213 2.42562 8.43213 2.46631L8.43213 2.75H8.34424ZM9.23926 2.68604C9.20671 2.7137 9.17529 2.73324 9.14502 2.74463C9.11507 2.75602 9.08285 2.76172 9.04834 2.76172C8.99137 2.76172 8.94759 2.74788 8.91699 2.72021C8.88639 2.69222 8.87109 2.65658 8.87109 2.61328C8.87109 2.58789 8.87679 2.56478 8.88818 2.54395C8.8999 2.52279 8.91504 2.50586 8.93359 2.49316C8.95247 2.48047 8.97363 2.47087 8.99707 2.46436C9.01432 2.4598 9.04036 2.4554 9.0752 2.45117C9.14616 2.44271 9.1984 2.43262 9.23193 2.4209C9.23226 2.40885 9.23242 2.4012 9.23242 2.39795C9.23242 2.36214 9.22412 2.33691 9.20752 2.32227C9.18506 2.30241 9.15169 2.29248 9.10742 2.29248C9.06608 2.29248 9.03548 2.2998 9.01562 2.31445C8.99609 2.32878 8.98161 2.35433 8.97217 2.39111L8.88623 2.37939C8.89404 2.34261 8.9069 2.31299 8.9248 2.29053C8.94271 2.26774 8.96859 2.25033 9.00244 2.23828C9.0363 2.22591 9.07552 2.21973 9.12012 2.21973C9.16439 2.21973 9.20036 2.22493 9.22803 2.23535C9.2557 2.24577 9.27604 2.25895 9.28906 2.2749C9.30208 2.29053 9.3112 2.31038 9.31641 2.33447C9.31934 2.34945 9.3208 2.37646 9.3208 2.41553L9.3208 2.53271C9.3208 2.61442 9.32259 2.66618 9.32617 2.68799C9.33008 2.70947 9.33757 2.73014 9.34863 2.75L9.25684 2.75C9.24772 2.73177 9.24186 2.71045 9.23926 2.68604ZM9.23193 2.48975C9.20003 2.50277 9.15218 2.51383 9.08838 2.52295C9.05225 2.52816 9.02669 2.53402 9.01172 2.54053C8.99674 2.54704 8.98519 2.55664 8.97705 2.56934C8.96891 2.58171 8.96484 2.59554 8.96484 2.61084C8.96484 2.63428 8.97363 2.65381 8.99121 2.66943C9.00911 2.68506 9.03516 2.69287 9.06934 2.69287C9.10319 2.69287 9.1333 2.68555 9.15967 2.6709C9.18604 2.65592 9.2054 2.63558 9.21777 2.60986C9.22721 2.59001 9.23193 2.56071 9.23193 2.52197L9.23193 2.48975ZM9.47852 2.75L9.47852 2.2998H9.40088L9.40088 2.23145L9.47852 2.23145L9.47852 2.17627C9.47852 2.14144 9.48161 2.11556 9.48779 2.09863C9.49626 2.07585 9.51107 2.05745 9.53223 2.04346C9.55371 2.02913 9.58366 2.02197 9.62207 2.02197C9.64681 2.02197 9.67415 2.0249 9.7041 2.03076L9.69092 2.10742C9.67269 2.10417 9.65544 2.10254 9.63916 2.10254C9.61247 2.10254 9.59359 2.10824 9.58252 2.11963C9.57145 2.13102 9.56592 2.15234 9.56592 2.18359L9.56592 2.23145H9.66699L9.66699 2.2998H9.56592L9.56592 2.75H9.47852ZM9.92773 2.67139L9.94043 2.74902C9.91569 2.75423 9.89355 2.75684 9.87402 2.75684C9.84212 2.75684 9.81738 2.75179 9.7998 2.7417C9.78223 2.73161 9.76986 2.71842 9.7627 2.70215C9.75553 2.68555 9.75195 2.65088 9.75195 2.59814L9.75195 2.2998H9.6875L9.6875 2.23145H9.75195L9.75195 2.10303L9.83936 2.05029L9.83936 2.23145H9.92773L9.92773 2.2998H9.83936L9.83936 2.60303C9.83936 2.62809 9.84082 2.64421 9.84375 2.65137C9.84701 2.65853 9.85205 2.66423 9.85889 2.66846C9.86605 2.67269 9.87614 2.6748 9.88916 2.6748C9.89893 2.6748 9.91178 2.67367 9.92773 2.67139ZM9.979 2.59521L10.0659 2.58154C10.0708 2.61637 10.0843 2.64307 10.1064 2.66162C10.1289 2.68018 10.1602 2.68945 10.2002 2.68945C10.2406 2.68945 10.2705 2.68132 10.29 2.66504C10.3096 2.64844 10.3193 2.62907 10.3193 2.60693C10.3193 2.58708 10.3107 2.57145 10.2935 2.56006C10.2814 2.55225 10.2515 2.54232 10.2036 2.53027C10.1392 2.514 10.0944 2.5 10.0693 2.48828C10.0446 2.47624 10.0257 2.4598 10.0127 2.43896C10 2.41781 9.99365 2.39453 9.99365 2.36914C9.99365 2.34603 9.99886 2.32471 10.0093 2.30518C10.02 2.28532 10.0345 2.26888 10.0527 2.25586C10.0664 2.24577 10.085 2.2373 10.1084 2.23047C10.1322 2.22331 10.1576 2.21973 10.1846 2.21973C10.2253 2.21973 10.2609 2.22559 10.2915 2.2373C10.3224 2.24902 10.3452 2.26497 10.3599 2.28516C10.3745 2.30501 10.3846 2.33171 10.3901 2.36523L10.3042 2.37695C10.3003 2.35026 10.2889 2.32943 10.27 2.31445C10.2515 2.29948 10.2251 2.29199 10.1909 2.29199C10.1506 2.29199 10.1217 2.29867 10.1045 2.31201C10.0872 2.32536 10.0786 2.34098 10.0786 2.35889C10.0786 2.37028 10.0822 2.38053 10.0894 2.38965C10.0965 2.39909 10.1077 2.4069 10.123 2.41309C10.1318 2.41634 10.1577 2.42383 10.2007 2.43555C10.2629 2.45215 10.3062 2.46582 10.3306 2.47656C10.3553 2.48698 10.3747 2.50228 10.3887 2.52246C10.4027 2.54264 10.4097 2.56771 10.4097 2.59766C10.4097 2.62695 10.401 2.65462 10.3838 2.68066C10.3669 2.70638 10.3423 2.7264 10.3101 2.74072C10.2778 2.75472 10.2414 2.76172 10.2007 2.76172C10.1333 2.76172 10.0819 2.74772 10.0464 2.71973C10.0112 2.69173 9.98877 2.65023 9.979 2.59521ZM10.5146 2.13525L10.5146 2.03418H10.6025L10.6025 2.13525H10.5146ZM10.5146 2.75L10.5146 2.23145H10.6025L10.6025 2.75H10.5146ZM10.7368 2.75L10.7368 2.23145H10.8159L10.8159 2.30518C10.854 2.24821 10.909 2.21973 10.981 2.21973C11.0122 2.21973 11.0409 2.22542 11.0669 2.23682C11.0933 2.24788 11.113 2.26253 11.126 2.28076C11.139 2.29899 11.1481 2.32064 11.1533 2.3457C11.1566 2.36198 11.1582 2.39046 11.1582 2.43115L11.1582 2.75H11.0703L11.0703 2.43457C11.0703 2.39876 11.0669 2.37207 11.0601 2.35449C11.0532 2.33659 11.041 2.32243 11.0234 2.31201C11.0062 2.30127 10.9858 2.2959 10.9624 2.2959C10.925 2.2959 10.8926 2.30778 10.8652 2.33154C10.8382 2.35531 10.8247 2.40039 10.8247 2.4668L10.8247 2.75H10.7368ZM11.2773 2.79297L11.3628 2.80566C11.3664 2.83203 11.3763 2.85124 11.3926 2.86328C11.4144 2.87956 11.4442 2.8877 11.4819 2.8877C11.5226 2.8877 11.554 2.87956 11.5762 2.86328C11.5983 2.84701 11.6133 2.82422 11.6211 2.79492C11.6257 2.77702 11.6278 2.73942 11.6274 2.68213C11.589 2.72738 11.5412 2.75 11.4839 2.75C11.4126 2.75 11.3574 2.72428 11.3184 2.67285C11.2793 2.62142 11.2598 2.55973 11.2598 2.48779C11.2598 2.43831 11.2687 2.39274 11.2866 2.35107C11.3045 2.30908 11.3304 2.27669 11.3643 2.25391C11.3984 2.23112 11.4385 2.21973 11.4844 2.21973C11.5456 2.21973 11.596 2.24447 11.6357 2.29395L11.6357 2.23145H11.7168L11.7168 2.67969C11.7168 2.76042 11.7085 2.81755 11.6919 2.85107C11.6756 2.88493 11.6496 2.91162 11.6138 2.93115C11.5783 2.95068 11.5345 2.96045 11.4824 2.96045C11.4206 2.96045 11.3706 2.94645 11.3325 2.91846C11.2944 2.89079 11.276 2.84896 11.2773 2.79297ZM11.3501 2.48145C11.3501 2.54948 11.3636 2.59912 11.3906 2.63037C11.4176 2.66162 11.4515 2.67725 11.4922 2.67725C11.5326 2.67725 11.5664 2.66178 11.5937 2.63086C11.6211 2.59961 11.6348 2.55078 11.6348 2.48437C11.6348 2.4209 11.6206 2.37305 11.5923 2.34082C11.5643 2.30859 11.5304 2.29248 11.4907 2.29248C11.4517 2.29248 11.4185 2.30843 11.3911 2.34033C11.3638 2.37191 11.3501 2.41895 11.3501 2.48145ZM12.2051 2.58301L12.2959 2.59424C12.2816 2.6473 12.255 2.68848 12.2163 2.71777C12.1776 2.74707 12.1281 2.76172 12.0679 2.76172C11.992 2.76172 11.9318 2.73844 11.8872 2.69189C11.8429 2.64502 11.8208 2.57943 11.8208 2.49512C11.8208 2.40788 11.8433 2.34017 11.8882 2.29199C11.9331 2.24382 11.9914 2.21973 12.063 2.21973C12.1323 2.21973 12.189 2.24333 12.2329 2.29053C12.2769 2.33773 12.2988 2.40413 12.2988 2.48975C12.2988 2.49495 12.2987 2.50277 12.2983 2.51318H11.9116C11.9149 2.57015 11.931 2.61377 11.96 2.64404C11.9889 2.67432 12.0251 2.68945 12.0684 2.68945C12.1006 2.68945 12.1281 2.68099 12.1509 2.66406C12.1737 2.64714 12.1917 2.62012 12.2051 2.58301ZM11.9165 2.44092H12.2061C12.2021 2.3973 12.1911 2.36458 12.1729 2.34277C12.1449 2.30892 12.1086 2.29199 12.064 2.29199C12.0236 2.29199 11.9896 2.3055 11.9619 2.33252C11.9346 2.35954 11.9194 2.39567 11.9165 2.44092ZM12.4067 2.75L12.4067 2.23145H12.4858L12.4858 2.30518C12.5239 2.24821 12.5789 2.21973 12.6509 2.21973C12.6821 2.21973 12.7108 2.22542 12.7368 2.23682C12.7632 2.24788 12.7829 2.26253 12.7959 2.28076C12.8089 2.29899 12.818 2.32064 12.8232 2.3457C12.8265 2.36198 12.8281 2.39046 12.8281 2.43115L12.8281 2.75L12.7402 2.75L12.7402 2.43457C12.7402 2.39876 12.7368 2.37207 12.73 2.35449C12.7231 2.33659 12.7109 2.32243 12.6934 2.31201C12.6761 2.30127 12.6558 2.2959 12.6323 2.2959C12.5949 2.2959 12.5625 2.30778 12.5352 2.33154C12.5081 2.35531 12.4946 2.40039 12.4946 2.4668L12.4946 2.75H12.4067ZM12.9639 2.13525L12.9639 2.03418H13.0518L13.0518 2.13525H12.9639ZM12.9639 2.75L12.9639 2.23145H13.0518L13.0518 2.75H12.9639ZM13.541 2.58301L13.6318 2.59424C13.6175 2.6473 13.591 2.68848 13.5522 2.71777C13.5135 2.74707 13.464 2.76172 13.4038 2.76172C13.328 2.76172 13.2677 2.73844 13.2231 2.69189C13.1789 2.64502 13.1567 2.57943 13.1567 2.49512C13.1567 2.40788 13.1792 2.34017 13.2241 2.29199C13.269 2.24382 13.3273 2.21973 13.3989 2.21973C13.4683 2.21973 13.5249 2.24333 13.5688 2.29053C13.6128 2.33773 13.6348 2.40413 13.6348 2.48975C13.6348 2.49495 13.6346 2.50277 13.6343 2.51318H13.2476C13.2508 2.57015 13.2669 2.61377 13.2959 2.64404C13.3249 2.67432 13.361 2.68945 13.4043 2.68945C13.4365 2.68945 13.464 2.68099 13.4868 2.66406C13.5096 2.64714 13.5277 2.62012 13.541 2.58301ZM13.2524 2.44092H13.542C13.5381 2.3973 13.527 2.36458 13.5088 2.34277C13.4808 2.30892 13.4445 2.29199 13.3999 2.29199C13.3595 2.29199 13.3255 2.3055 13.2979 2.33252C13.2705 2.35954 13.2554 2.39567 13.2524 2.44092ZM14.0825 2.75L14.0825 2.67383C14.0422 2.73242 13.9873 2.76172 13.918 2.76172C13.8874 2.76172 13.8587 2.75586 13.832 2.74414C13.8057 2.73242 13.786 2.71777 13.7729 2.7002C13.7603 2.68229 13.7513 2.66048 13.7461 2.63477C13.7425 2.61751 13.7407 2.59017 13.7407 2.55273L13.7407 2.23145H13.8286L13.8286 2.51904C13.8286 2.56494 13.8304 2.59587 13.834 2.61182C13.8395 2.63493 13.8512 2.65316 13.8691 2.6665C13.887 2.67952 13.9092 2.68604 13.9355 2.68604C13.9619 2.68604 13.9867 2.67936 14.0098 2.66602C14.0329 2.65234 14.0492 2.63395 14.0586 2.61084C14.0684 2.5874 14.0732 2.55355 14.0732 2.50928L14.0732 2.23145H14.1611L14.1611 2.75H14.0825ZM14.2983 2.75L14.2983 2.23145H14.3774L14.3774 2.31006C14.3976 2.27327 14.4162 2.24902 14.4331 2.2373C14.4504 2.22559 14.4692 2.21973 14.4897 2.21973C14.5194 2.21973 14.5495 2.22917 14.5801 2.24805L14.5498 2.32959C14.5283 2.31689 14.5068 2.31055 14.4854 2.31055C14.4661 2.31055 14.4489 2.31641 14.4336 2.32812C14.4183 2.33952 14.4074 2.35547 14.4009 2.37598C14.3911 2.40723 14.3862 2.44141 14.3862 2.47852L14.3862 2.75H14.2983ZM14.728 2.75L14.5693 2.23145H14.6602L14.7427 2.53076L14.7734 2.64209C14.7747 2.63656 14.7837 2.60091 14.8003 2.53516L14.8828 2.23145H14.9731L15.0508 2.53223L15.0767 2.63135L15.1064 2.53125L15.1953 2.23145H15.2808L15.1187 2.75H15.0273L14.9448 2.43945L14.9248 2.35107L14.8198 2.75H14.728ZM15.71 2.58301L15.8008 2.59424C15.7865 2.6473 15.7599 2.68848 15.7212 2.71777C15.6825 2.74707 15.633 2.76172 15.5728 2.76172C15.4969 2.76172 15.4367 2.73844 15.3921 2.69189C15.3478 2.64502 15.3257 2.57943 15.3257 2.49512C15.3257 2.40788 15.3481 2.34017 15.3931 2.29199C15.438 2.24382 15.4963 2.21973 15.5679 2.21973C15.6372 2.21973 15.6938 2.24333 15.7378 2.29053C15.7817 2.33773 15.8037 2.40413 15.8037 2.48975C15.8037 2.49495 15.8035 2.50277 15.8032 2.51318H15.4165C15.4198 2.57015 15.4359 2.61377 15.4648 2.64404C15.4938 2.67432 15.5299 2.68945 15.5732 2.68945C15.6055 2.68945 15.633 2.68099 15.6558 2.66406C15.6785 2.64714 15.6966 2.62012 15.71 2.58301ZM15.4214 2.44092H15.7109C15.707 2.3973 15.696 2.36458 15.6777 2.34277C15.6497 2.30892 15.6134 2.29199 15.5688 2.29199C15.5285 2.29199 15.4945 2.3055 15.4668 2.33252C15.4395 2.35954 15.4243 2.39567 15.4214 2.44092ZM15.8765 2.59521L15.9634 2.58154C15.9683 2.61637 15.9818 2.64307 16.0039 2.66162C16.0264 2.68018 16.0576 2.68945 16.0977 2.68945C16.138 2.68945 16.168 2.68132 16.1875 2.66504C16.207 2.64844 16.2168 2.62907 16.2168 2.60693C16.2168 2.58708 16.2082 2.57145 16.1909 2.56006C16.1789 2.55225 16.1489 2.54232 16.1011 2.53027C16.0366 2.514 15.9919 2.5 15.9668 2.48828C15.9421 2.47624 15.9232 2.4598 15.9102 2.43896C15.8975 2.41781 15.8911 2.39453 15.8911 2.36914C15.8911 2.34603 15.8963 2.32471 15.9067 2.30518C15.9175 2.28532 15.932 2.26888 15.9502 2.25586C15.9639 2.24577 15.9824 2.2373 16.0059 2.23047C16.0296 2.22331 16.055 2.21973 16.082 2.21973C16.1227 2.21973 16.1584 2.22559 16.189 2.2373C16.2199 2.24902 16.2427 2.26497 16.2573 2.28516C16.272 2.30501 16.2821 2.33171 16.2876 2.36523L16.2017 2.37695C16.1978 2.35026 16.1864 2.32943 16.1675 2.31445C16.1489 2.29948 16.1226 2.29199 16.0884 2.29199C16.048 2.29199 16.0192 2.29867 16.002 2.31201C15.9847 2.32536 15.9761 2.34098 15.9761 2.35889C15.9761 2.37028 15.9797 2.38053 15.9868 2.38965C15.994 2.39909 16.0052 2.4069 16.0205 2.41309C16.0293 2.41634 16.0552 2.42383 16.0981 2.43555C16.1603 2.45215 16.2036 2.46582 16.228 2.47656C16.2528 2.48698 16.2721 2.50228 16.2861 2.52246C16.3001 2.54264 16.3071 2.56771 16.3071 2.59766C16.3071 2.62695 16.2985 2.65462 16.2812 2.68066C16.2643 2.70638 16.2397 2.7264 16.2075 2.74072C16.1753 2.75472 16.1388 2.76172 16.0981 2.76172C16.0308 2.76172 15.9793 2.74772 15.9438 2.71973C15.9087 2.69173 15.8862 2.65023 15.8765 2.59521ZM16.7666 2.58301L16.8574 2.59424C16.8431 2.6473 16.8166 2.68848 16.7778 2.71777C16.7391 2.74707 16.6896 2.76172 16.6294 2.76172C16.5535 2.76172 16.4933 2.73844 16.4487 2.69189C16.4045 2.64502 16.3823 2.57943 16.3823 2.49512C16.3823 2.40788 16.4048 2.34017 16.4497 2.29199C16.4946 2.24382 16.5529 2.21973 16.6245 2.21973C16.6938 2.21973 16.7505 2.24333 16.7944 2.29053C16.8384 2.33773 16.8604 2.40413 16.8604 2.48975C16.8604 2.49495 16.8602 2.50277 16.8599 2.51318H16.4731C16.4764 2.57015 16.4925 2.61377 16.5215 2.64404C16.5505 2.67432 16.5866 2.68945 16.6299 2.68945C16.6621 2.68945 16.6896 2.68099 16.7124 2.66406C16.7352 2.64714 16.7533 2.62012 16.7666 2.58301ZM16.478 2.44092H16.7676C16.7637 2.3973 16.7526 2.36458 16.7344 2.34277C16.7064 2.30892 16.6701 2.29199 16.6255 2.29199C16.5851 2.29199 16.5511 2.3055 16.5234 2.33252C16.4961 2.35954 16.481 2.39567 16.478 2.44092ZM16.9683 2.75L16.9683 2.23145H17.0474L17.0474 2.30518C17.0854 2.24821 17.1405 2.21973 17.2124 2.21973C17.2437 2.21973 17.2723 2.22542 17.2983 2.23682C17.3247 2.24788 17.3444 2.26253 17.3574 2.28076C17.3704 2.29899 17.3796 2.32064 17.3848 2.3457C17.388 2.36198 17.3896 2.39046 17.3896 2.43115L17.3896 2.75H17.3018L17.3018 2.43457C17.3018 2.39876 17.2983 2.37207 17.2915 2.35449C17.2847 2.33659 17.2725 2.32243 17.2549 2.31201C17.2376 2.30127 17.2173 2.2959 17.1938 2.2959C17.1564 2.2959 17.124 2.30778 17.0967 2.33154C17.0697 2.35531 17.0562 2.40039 17.0562 2.4668L17.0562 2.75H16.9683Z" fill="#828282"/>
<path d="M5.44495 24.77L5.5343 24.7622C5.53853 24.798 5.5483 24.8275 5.5636 24.8506C5.57922 24.8734 5.60331 24.8919 5.63586 24.9062C5.66842 24.9202 5.70504 24.9272 5.74573 24.9272C5.78186 24.9272 5.81376 24.9219 5.84143 24.9111C5.8691 24.9004 5.88961 24.8857 5.90295 24.8672C5.91663 24.8483 5.92346 24.8278 5.92346 24.8057C5.92346 24.7832 5.91695 24.7637 5.90393 24.7471C5.89091 24.7301 5.86943 24.716 5.83948 24.7046C5.82027 24.6971 5.77779 24.6855 5.71204 24.6699C5.64628 24.654 5.60022 24.639 5.57385 24.625C5.53967 24.6071 5.51412 24.585 5.49719 24.5586C5.48059 24.5319 5.47229 24.5021 5.47229 24.4692C5.47229 24.4331 5.48254 24.3994 5.50305 24.3682C5.52356 24.3366 5.55351 24.3127 5.5929 24.2964C5.63228 24.2801 5.67607 24.272 5.72424 24.272C5.7773 24.272 5.82402 24.2806 5.86438 24.2979C5.90507 24.3148 5.93632 24.3398 5.95813 24.373C5.97994 24.4062 5.99166 24.4438 5.99329 24.4858L5.90247 24.4927C5.89758 24.4474 5.88098 24.4132 5.85266 24.3901C5.82467 24.367 5.78316 24.3555 5.72815 24.3555C5.67086 24.3555 5.62903 24.366 5.60266 24.3872C5.57662 24.408 5.5636 24.4333 5.5636 24.4629C5.5636 24.4886 5.57288 24.5098 5.59143 24.5264C5.60966 24.543 5.65719 24.5601 5.73401 24.5776C5.81116 24.5949 5.86405 24.61 5.8927 24.623C5.93437 24.6423 5.96513 24.6667 5.98499 24.6963C6.00484 24.7256 6.01477 24.7594 6.01477 24.7979C6.01477 24.8359 6.00387 24.8719 5.98206 24.9058C5.96025 24.9393 5.92883 24.9655 5.88782 24.9844C5.84713 25.0029 5.80123 25.0122 5.75012 25.0122C5.68534 25.0122 5.63098 25.0028 5.58704 24.9839C5.54342 24.965 5.50907 24.9367 5.48401 24.8989C5.45927 24.8608 5.44625 24.8179 5.44495 24.77ZM6.47131 24.8101L6.55774 24.8213C6.5483 24.8809 6.52405 24.9276 6.48499 24.9614C6.44625 24.995 6.39856 25.0117 6.34192 25.0117C6.27096 25.0117 6.21383 24.9886 6.17053 24.9424C6.12756 24.8958 6.10608 24.8293 6.10608 24.7427C6.10608 24.6867 6.11536 24.6377 6.13391 24.5957C6.15247 24.5537 6.18062 24.5223 6.21838 24.5015C6.25647 24.4803 6.29781 24.4697 6.34241 24.4697C6.39872 24.4697 6.44478 24.484 6.48059 24.5127C6.5164 24.541 6.53935 24.5814 6.54944 24.6338L6.46399 24.647C6.45585 24.6121 6.44137 24.5859 6.42053 24.5684C6.40002 24.5508 6.37512 24.542 6.34583 24.542C6.30155 24.542 6.26558 24.5579 6.23792 24.5898C6.21025 24.6214 6.19641 24.6715 6.19641 24.7402C6.19641 24.8099 6.20976 24.8605 6.23645 24.8921C6.26314 24.9237 6.29797 24.9395 6.34094 24.9395C6.37545 24.9395 6.40426 24.9289 6.42737 24.9077C6.45048 24.8866 6.46513 24.854 6.47131 24.8101ZM6.63293 25L6.63293 24.2842H6.72083L6.72083 24.541C6.76184 24.4935 6.8136 24.4697 6.8761 24.4697C6.91451 24.4697 6.94788 24.4774 6.9762 24.4927C7.00452 24.5076 7.0247 24.5285 7.03674 24.5552C7.04911 24.5819 7.0553 24.6206 7.0553 24.6714L7.0553 25H6.96741L6.96741 24.6714C6.96741 24.6274 6.9578 24.5955 6.9386 24.5757C6.91972 24.5555 6.89286 24.5454 6.85803 24.5454C6.83199 24.5454 6.80741 24.5522 6.7843 24.5659C6.76152 24.5793 6.74524 24.5975 6.73547 24.6206C6.72571 24.6437 6.72083 24.6756 6.72083 24.7163L6.72083 25H6.63293ZM7.28528 25L7.12659 24.4814H7.21741L7.29993 24.7808L7.33069 24.8921C7.33199 24.8866 7.34094 24.8509 7.35754 24.7852L7.44006 24.4814H7.5304L7.60803 24.7822L7.63391 24.8813L7.6637 24.7812L7.75256 24.4814H7.83801L7.6759 25H7.58459L7.50208 24.6895L7.48206 24.6011L7.37708 25H7.28528ZM8.26721 24.833L8.35803 24.8442C8.34371 24.8973 8.31718 24.9385 8.27844 24.9678C8.23971 24.9971 8.19023 25.0117 8.13 25.0117C8.05416 25.0117 7.99394 24.9884 7.94934 24.9419C7.90507 24.895 7.88293 24.8294 7.88293 24.7451C7.88293 24.6579 7.9054 24.5902 7.95032 24.542C7.99524 24.4938 8.05351 24.4697 8.12512 24.4697C8.19446 24.4697 8.2511 24.4933 8.29504 24.5405C8.33899 24.5877 8.36096 24.6541 8.36096 24.7397C8.36096 24.745 8.3608 24.7528 8.36047 24.7632H7.97375C7.97701 24.8201 7.99312 24.8638 8.02209 24.894C8.05107 24.9243 8.0872 24.9395 8.13049 24.9395C8.16272 24.9395 8.19023 24.931 8.21301 24.9141C8.2358 24.8971 8.25387 24.8701 8.26721 24.833ZM7.97864 24.6909H8.26819C8.26428 24.6473 8.25321 24.6146 8.23499 24.5928C8.20699 24.5589 8.17069 24.542 8.1261 24.542C8.08573 24.542 8.05172 24.5555 8.02405 24.5825C7.9967 24.6095 7.98157 24.6457 7.97864 24.6909ZM8.4679 25L8.4679 24.4814H8.547L8.547 24.5601C8.56718 24.5233 8.58573 24.499 8.60266 24.4873C8.61991 24.4756 8.63879 24.4697 8.6593 24.4697C8.68892 24.4697 8.71903 24.4792 8.74963 24.498L8.71936 24.5796C8.69788 24.5669 8.67639 24.5605 8.65491 24.5605C8.6357 24.5605 8.61845 24.5664 8.60315 24.5781C8.58785 24.5895 8.57694 24.6055 8.57043 24.626C8.56067 24.6572 8.55579 24.6914 8.55579 24.7285L8.55579 25H8.4679ZM8.80188 25.1987L8.80188 24.4814H8.88196L8.88196 24.5488C8.90084 24.5225 8.92216 24.5028 8.94592 24.4897C8.96969 24.4764 8.99849 24.4697 9.03235 24.4697C9.07662 24.4697 9.11568 24.4811 9.14954 24.5039C9.18339 24.5267 9.20894 24.5589 9.2262 24.6006C9.24345 24.6419 9.25208 24.6873 9.25208 24.7368C9.25208 24.7899 9.24247 24.8377 9.22327 24.8804C9.20439 24.9227 9.17672 24.9552 9.14026 24.978C9.10413 25.0005 9.06604 25.0117 9.026 25.0117C8.9967 25.0117 8.97034 25.0055 8.9469 24.9932C8.92379 24.9808 8.90474 24.9652 8.88977 24.9463L8.88977 25.1987H8.80188ZM8.88147 24.7437C8.88147 24.8104 8.89498 24.8597 8.922 24.8916C8.94902 24.9235 8.98173 24.9395 9.02014 24.9395C9.0592 24.9395 9.09257 24.923 9.12024 24.8901C9.14823 24.8569 9.16223 24.8057 9.16223 24.7363C9.16223 24.6702 9.14856 24.6208 9.12122 24.5879C9.0942 24.555 9.06181 24.5386 9.02405 24.5386C8.98661 24.5386 8.95341 24.5562 8.92444 24.5913C8.89579 24.6261 8.88147 24.6769 8.88147 24.7437ZM9.69836 25L9.69836 24.9238C9.658 24.9824 9.60315 25.0117 9.53381 25.0117C9.50321 25.0117 9.47457 25.0059 9.44788 24.9941C9.42151 24.9824 9.40181 24.9678 9.38879 24.9502C9.3761 24.9323 9.36715 24.9105 9.36194 24.8848C9.35836 24.8675 9.35657 24.8402 9.35657 24.8027L9.35657 24.4814H9.44446L9.44446 24.769C9.44446 24.8149 9.44625 24.8459 9.44983 24.8618C9.45536 24.8849 9.46708 24.9032 9.48499 24.9165C9.50289 24.9295 9.52502 24.936 9.55139 24.936C9.57776 24.936 9.6025 24.9294 9.62561 24.916C9.64872 24.9023 9.665 24.884 9.67444 24.8608C9.6842 24.8374 9.68909 24.8035 9.68909 24.7593L9.68909 24.4814H9.77698L9.77698 25H9.69836ZM9.91516 25L9.91516 24.4814H9.99426L9.99426 24.5552C10.0323 24.4982 10.0874 24.4697 10.1593 24.4697C10.1906 24.4697 10.2192 24.4754 10.2452 24.4868C10.2716 24.4979 10.2913 24.5125 10.3043 24.5308C10.3173 24.549 10.3265 24.5706 10.3317 24.5957C10.3349 24.612 10.3365 24.6405 10.3365 24.6812L10.3365 25H10.2487L10.2487 24.6846C10.2487 24.6488 10.2452 24.6221 10.2384 24.6045C10.2316 24.5866 10.2194 24.5724 10.2018 24.562C10.1845 24.5513 10.1642 24.5459 10.1407 24.5459C10.1033 24.5459 10.0709 24.5578 10.0436 24.5815C10.0166 24.6053 10.0031 24.6504 10.0031 24.7168L10.0031 25H9.91516ZM10.4723 25L10.4723 24.2842H10.5602L10.5602 24.6924L10.7682 24.4814H10.882L10.6837 24.6738L10.902 25H10.7936L10.6222 24.7349L10.5602 24.7944L10.5602 25H10.4723ZM11.1637 24.9214L11.1764 24.999C11.1517 25.0042 11.1295 25.0068 11.11 25.0068C11.0781 25.0068 11.0533 25.0018 11.0358 24.9917C11.0182 24.9816 11.0058 24.9684 10.9987 24.9521C10.9915 24.9355 10.9879 24.9009 10.9879 24.8481L10.9879 24.5498H10.9235L10.9235 24.4814H10.9879L10.9879 24.353L11.0753 24.3003L11.0753 24.4814H11.1637L11.1637 24.5498H11.0753L11.0753 24.853C11.0753 24.8781 11.0768 24.8942 11.0797 24.9014C11.083 24.9085 11.088 24.9142 11.0948 24.9185C11.102 24.9227 11.1121 24.9248 11.1251 24.9248C11.1349 24.9248 11.1477 24.9237 11.1637 24.9214ZM11.5416 25L11.5416 24.2842H12.0592L12.0592 24.3687H11.6364L11.6364 24.5879H12.0323L12.0323 24.6719H11.6364L11.6364 24.9155H12.0758L12.0758 25H11.5416ZM12.1935 25L12.1935 24.2842H12.2814L12.2814 25H12.1935ZM12.7731 24.833L12.8639 24.8442C12.8496 24.8973 12.823 24.9385 12.7843 24.9678C12.7456 24.9971 12.6961 25.0117 12.6359 25.0117C12.56 25.0117 12.4998 24.9884 12.4552 24.9419C12.4109 24.895 12.3888 24.8294 12.3888 24.7451C12.3888 24.6579 12.4113 24.5902 12.4562 24.542C12.5011 24.4938 12.5594 24.4697 12.631 24.4697C12.7003 24.4697 12.757 24.4933 12.8009 24.5405C12.8448 24.5877 12.8668 24.6541 12.8668 24.7397C12.8668 24.745 12.8667 24.7528 12.8663 24.7632H12.4796C12.4829 24.8201 12.499 24.8638 12.528 24.894C12.5569 24.9243 12.5931 24.9395 12.6364 24.9395C12.6686 24.9395 12.6961 24.931 12.7189 24.9141C12.7417 24.8971 12.7597 24.8701 12.7731 24.833ZM12.4845 24.6909H12.774C12.7701 24.6473 12.7591 24.6146 12.7408 24.5928C12.7128 24.5589 12.6766 24.542 12.632 24.542C12.5916 24.542 12.5576 24.5555 12.5299 24.5825C12.5026 24.6095 12.4874 24.6457 12.4845 24.6909ZM12.9752 25L12.9752 24.2842H13.0631L13.0631 24.6924L13.2711 24.4814H13.3849L13.1866 24.6738L13.4049 25H13.2965L13.1251 24.7349L13.0631 24.7944L13.0631 25H12.9752ZM13.6666 24.9214L13.6793 24.999C13.6546 25.0042 13.6324 25.0068 13.6129 25.0068C13.581 25.0068 13.5563 25.0018 13.5387 24.9917C13.5211 24.9816 13.5087 24.9684 13.5016 24.9521C13.4944 24.9355 13.4908 24.9009 13.4908 24.8481L13.4908 24.5498H13.4264L13.4264 24.4814H13.4908L13.4908 24.353L13.5782 24.3003L13.5782 24.4814H13.6666L13.6666 24.5498H13.5782L13.5782 24.853C13.5782 24.8781 13.5797 24.8942 13.5826 24.9014C13.5859 24.9085 13.5909 24.9142 13.5978 24.9185C13.6049 24.9227 13.615 24.9248 13.6281 24.9248C13.6378 24.9248 13.6507 24.9237 13.6666 24.9214ZM13.7521 25L13.7521 24.4814H13.8312L13.8312 24.5601C13.8514 24.5233 13.8699 24.499 13.8868 24.4873C13.9041 24.4756 13.923 24.4697 13.9435 24.4697C13.9731 24.4697 14.0032 24.4792 14.0338 24.498L14.0035 24.5796C13.9821 24.5669 13.9606 24.5605 13.9391 24.5605C13.9199 24.5605 13.9026 24.5664 13.8873 24.5781C13.872 24.5895 13.8611 24.6055 13.8546 24.626C13.8448 24.6572 13.84 24.6914 13.84 24.7285L13.84 25H13.7521ZM14.0533 24.7407C14.0533 24.6447 14.08 24.5736 14.1334 24.5273C14.178 24.4889 14.2324 24.4697 14.2965 24.4697C14.3678 24.4697 14.4261 24.4932 14.4713 24.54C14.5166 24.5866 14.5392 24.651 14.5392 24.7334C14.5392 24.8001 14.5291 24.8527 14.5089 24.8911C14.4891 24.9292 14.4599 24.9588 14.4215 24.98C14.3834 25.0011 14.3418 25.0117 14.2965 25.0117C14.2239 25.0117 14.1652 24.9884 14.1202 24.9419C14.0756 24.8953 14.0533 24.8283 14.0533 24.7407ZM14.1437 24.7407C14.1437 24.8071 14.1582 24.8569 14.1871 24.8901C14.2161 24.923 14.2526 24.9395 14.2965 24.9395C14.3401 24.9395 14.3764 24.9229 14.4054 24.8896C14.4344 24.8564 14.4489 24.8058 14.4489 24.7378C14.4489 24.6737 14.4342 24.6252 14.4049 24.5923C14.3759 24.5591 14.3398 24.5425 14.2965 24.5425C14.2526 24.5425 14.2161 24.5589 14.1871 24.5918C14.1582 24.6247 14.1437 24.6743 14.1437 24.7407ZM14.8346 24.9214L14.8473 24.999C14.8226 25.0042 14.8004 25.0068 14.7809 25.0068C14.749 25.0068 14.7242 25.0018 14.7067 24.9917C14.6891 24.9816 14.6767 24.9684 14.6696 24.9521C14.6624 24.9355 14.6588 24.9009 14.6588 24.8481L14.6588 24.5498H14.5944L14.5944 24.4814H14.6588L14.6588 24.353L14.7462 24.3003L14.7462 24.4814H14.8346L14.8346 24.5498H14.7462L14.7462 24.853C14.7462 24.8781 14.7477 24.8942 14.7506 24.9014C14.7539 24.9085 14.7589 24.9142 14.7657 24.9185C14.7729 24.9227 14.783 24.9248 14.796 24.9248C14.8058 24.9248 14.8186 24.9237 14.8346 24.9214ZM15.276 24.833L15.3668 24.8442C15.3525 24.8973 15.326 24.9385 15.2872 24.9678C15.2485 24.9971 15.199 25.0117 15.1388 25.0117C15.0629 25.0117 15.0027 24.9884 14.9581 24.9419C14.9139 24.895 14.8917 24.8294 14.8917 24.7451C14.8917 24.6579 14.9142 24.5902 14.9591 24.542C15.004 24.4938 15.0623 24.4697 15.1339 24.4697C15.2032 24.4697 15.2599 24.4933 15.3038 24.5405C15.3478 24.5877 15.3698 24.6541 15.3698 24.7397C15.3698 24.745 15.3696 24.7528 15.3693 24.7632H14.9825C14.9858 24.8201 15.0019 24.8638 15.0309 24.894C15.0599 24.9243 15.096 24.9395 15.1393 24.9395C15.1715 24.9395 15.199 24.931 15.2218 24.9141C15.2446 24.8971 15.2627 24.8701 15.276 24.833ZM14.9874 24.6909H15.277C15.2731 24.6473 15.262 24.6146 15.2438 24.5928C15.2158 24.5589 15.1795 24.542 15.1349 24.542C15.0945 24.542 15.0605 24.5555 15.0328 24.5825C15.0055 24.6095 14.9904 24.6457 14.9874 24.6909ZM15.816 24.8101L15.9025 24.8213C15.893 24.8809 15.8688 24.9276 15.8297 24.9614C15.791 24.995 15.7433 25.0117 15.6866 25.0117C15.6157 25.0117 15.5586 24.9886 15.5153 24.9424C15.4723 24.8958 15.4508 24.8293 15.4508 24.7427C15.4508 24.6867 15.4601 24.6377 15.4786 24.5957C15.4972 24.5537 15.5253 24.5223 15.5631 24.5015C15.6012 24.4803 15.6425 24.4697 15.6871 24.4697C15.7434 24.4697 15.7895 24.484 15.8253 24.5127C15.8611 24.541 15.8841 24.5814 15.8942 24.6338L15.8087 24.647C15.8006 24.6121 15.7861 24.5859 15.7653 24.5684C15.7448 24.5508 15.7198 24.542 15.6906 24.542C15.6463 24.542 15.6103 24.5579 15.5826 24.5898C15.555 24.6214 15.5411 24.6715 15.5411 24.7402C15.5411 24.8099 15.5545 24.8605 15.5812 24.8921C15.6079 24.9237 15.6427 24.9395 15.6857 24.9395C15.7202 24.9395 15.749 24.9289 15.7721 24.9077C15.7952 24.8866 15.8099 24.854 15.816 24.8101ZM15.9777 25L15.9777 24.2842H16.0656L16.0656 24.541C16.1066 24.4935 16.1583 24.4697 16.2208 24.4697C16.2592 24.4697 16.2926 24.4774 16.3209 24.4927C16.3492 24.5076 16.3694 24.5285 16.3815 24.5552C16.3938 24.5819 16.4 24.6206 16.4 24.6714L16.4 25H16.3121L16.3121 24.6714C16.3121 24.6274 16.3025 24.5955 16.2833 24.5757C16.2644 24.5555 16.2376 24.5454 16.2028 24.5454C16.1767 24.5454 16.1521 24.5522 16.129 24.5659C16.1062 24.5793 16.09 24.5975 16.0802 24.6206C16.0704 24.6437 16.0656 24.6756 16.0656 24.7163L16.0656 25H15.9777ZM16.5343 25L16.5343 24.4814H16.6134L16.6134 24.5552C16.6515 24.4982 16.7065 24.4697 16.7784 24.4697C16.8097 24.4697 16.8383 24.4754 16.8644 24.4868C16.8907 24.4979 16.9104 24.5125 16.9235 24.5308C16.9365 24.549 16.9456 24.5706 16.9508 24.5957C16.9541 24.612 16.9557 24.6405 16.9557 24.6812L16.9557 25H16.8678L16.8678 24.6846C16.8678 24.6488 16.8644 24.6221 16.8575 24.6045C16.8507 24.5866 16.8385 24.5724 16.8209 24.562C16.8037 24.5513 16.7833 24.5459 16.7599 24.5459C16.7225 24.5459 16.6901 24.5578 16.6627 24.5815C16.6357 24.6053 16.6222 24.6504 16.6222 24.7168L16.6222 25H16.5343ZM17.0914 24.3853L17.0914 24.2842H17.1793L17.1793 24.3853H17.0914ZM17.0914 25L17.0914 24.4814H17.1793L17.1793 25L17.0914 25ZM17.3141 25L17.3141 24.2842H17.402L17.402 24.6924L17.61 24.4814H17.7238L17.5255 24.6738L17.7438 25H17.6354L17.464 24.7349L17.402 24.7944L17.402 25H17.3141Z" fill="#828282"/>
</g>
<defs>
<clipPath id="clip0_29_2">
<rect width="23" height="27" fill="white"/>
</clipPath>
</defs>
</svg>
