<svg width="506" height="113" viewBox="0 0 506 113" fill="none" xmlns="http://www.w3.org/2000/svg">
<g clip-path="url(#clip0_98_5)">
<path d="M423.589 89.032H410.129V110.249H423.589V89.032Z" fill="#997668"/>
<path opacity="0.2" d="M416.859 89.032H410.129V110.249H416.859V89.032Z" fill="#222222"/>
<path opacity="0.3" d="M410.129 89.032V99.9369C412.281 100.491 414.536 100.786 416.859 100.786C419.182 100.786 421.437 100.491 423.589 99.9369V89.032H410.129Z" fill="#222222"/>
<path d="M439.713 73.7764C439.713 61.1481 434.567 3.70093 416.859 3.70093C399.151 3.70119 394.005 61.1483 394.005 73.7764C394.005 86.4042 404.237 96.6413 416.859 96.6413C429.481 96.6413 439.713 86.4042 439.713 73.7764Z" fill="#218649"/>
<path opacity="0.2" d="M432.405 24.239C431.606 26.9772 430.854 29.9345 430.157 33.1141C426.467 49.9167 425.273 67.765 425.273 73.7768C425.273 80.4093 427.677 86.4897 431.656 91.1961C436.583 87.0017 439.714 80.7563 439.714 73.7768C439.714 66.1289 437.826 42.0473 432.405 24.239Z" fill="#222222"/>
<path opacity="0.2" d="M416.859 3.70117C399.151 3.70117 394.005 61.1483 394.005 73.7764C394.005 86.4041 404.237 96.6413 416.859 96.6413V3.70117Z" fill="#222222"/>
<path d="M402.536 79.5048C402.05 79.5048 401.562 79.3273 401.179 78.9686C400.376 78.2184 400.333 76.9592 401.084 76.1562L407.094 69.7208C407.844 68.9182 409.103 68.8755 409.905 69.6258C410.708 70.3761 410.751 71.6352 410 72.4383L403.99 78.8736C403.598 79.2928 403.068 79.5048 402.536 79.5048Z" fill="#77BC1F"/>
<path d="M426.227 32.1135C425.587 32.1135 424.958 31.8047 424.574 31.233L419.624 23.8605C419.012 22.9484 419.254 21.7121 420.166 21.0995C421.078 20.4867 422.314 20.7294 422.926 21.6418L427.876 29.0143C428.488 29.9264 428.246 31.1627 427.334 31.7752C426.994 32.0039 426.608 32.1135 426.227 32.1135Z" fill="#77BC1F"/>
<path d="M409.431 27.9516C409.174 27.9516 408.913 27.9017 408.662 27.7961C407.649 27.3706 407.173 26.2046 407.598 25.1914L411.661 15.5047C412.086 14.4918 413.251 14.0153 414.264 14.4398C415.277 14.8653 415.753 16.0313 415.328 17.0445L411.265 26.7312C410.946 27.4929 410.208 27.9516 409.431 27.9516Z" fill="#77BC1F"/>
<path d="M406.602 54.2779C405.935 54.2779 405.284 53.9431 404.908 53.3342L400.845 46.7603C400.268 45.826 400.557 44.5995 401.491 44.0217C402.426 43.4436 403.651 43.7327 404.228 44.6677L408.291 51.2415C408.869 52.1759 408.58 53.4024 407.646 53.9802C407.32 54.1819 406.959 54.2779 406.602 54.2779Z" fill="#77BC1F"/>
<path d="M422.336 91.7737C421.87 91.7737 421.402 91.611 421.024 91.2794C420.199 90.5544 420.117 89.2971 420.842 88.4712L426.676 81.8223C427.4 80.9966 428.657 80.9147 429.482 81.6397C430.308 82.3648 430.389 83.6221 429.665 84.4479L423.831 91.0966C423.438 91.5447 422.888 91.7737 422.336 91.7737Z" fill="#77BC1F"/>
<path d="M426.226 62.6948C425.475 62.6948 424.756 62.2666 424.42 61.5397L420.531 53.123C420.07 52.1255 420.504 50.9431 421.501 50.482C422.498 50.0209 423.68 50.4557 424.141 51.453L428.03 59.8696C428.491 60.8672 428.057 62.0496 427.059 62.5107C426.789 62.6354 426.506 62.6948 426.226 62.6948Z" fill="#77BC1F"/>
<path d="M489.875 89.032H476.415V110.249H489.875V89.032Z" fill="#997668"/>
<path opacity="0.2" d="M483.145 89.032H476.415V110.249H483.145V89.032Z" fill="#222222"/>
<path opacity="0.3" d="M476.415 89.032V99.9369C478.567 100.491 480.822 100.786 483.145 100.786C485.468 100.786 487.723 100.491 489.875 99.9369V89.032H476.415Z" fill="#222222"/>
<path d="M505.999 73.7764C505.999 61.1481 500.853 10.2637 483.145 10.2637C465.437 10.2637 460.291 61.1483 460.291 73.7764C460.291 86.4042 470.523 96.6413 483.145 96.6413C495.767 96.6413 505.999 86.4042 505.999 73.7764Z" fill="#218649"/>
<path opacity="0.2" d="M460.291 73.7764C460.291 86.4042 470.523 96.6413 483.145 96.6413V10.2637C465.437 10.2637 460.291 61.1483 460.291 73.7764Z" fill="#222222"/>
<path d="M479.533 35.3602C478.72 35.3602 477.957 34.8583 477.664 34.0497L474.65 25.7529C474.275 24.7198 474.808 23.5785 475.84 23.2034C476.873 22.8282 478.014 23.361 478.389 24.3938L481.402 32.6905C481.777 33.7233 481.244 34.8649 480.212 35.2401C479.988 35.3215 479.759 35.3602 479.533 35.3602Z" fill="#77BC1F"/>
<path d="M494.196 62.1485C493.835 62.1485 493.469 62.05 493.14 61.8436C492.21 61.2594 491.93 60.0311 492.514 59.1004L497.287 51.4951C497.871 50.5647 499.098 50.2837 500.029 50.8682C500.959 51.4523 501.239 52.6807 500.655 53.6114L495.882 61.2167C495.505 61.8184 494.858 62.1485 494.196 62.1485Z" fill="#77BC1F"/>
<path d="M488.719 44.0383C488.117 44.0383 487.522 43.7661 487.131 43.2485C486.469 42.3716 486.642 41.1239 487.518 40.4612L494.235 35.3802C495.112 34.7175 496.359 34.891 497.021 35.7672C497.683 36.6441 497.51 37.8918 496.634 38.5545L489.916 43.6355C489.558 43.9069 489.137 44.0383 488.719 44.0383Z" fill="#77BC1F"/>
<path d="M478.026 60.4098C477.758 60.4098 477.487 60.3557 477.227 60.2414C476.221 59.7996 475.764 58.6257 476.205 57.6194L479.825 49.3712C480.267 48.3649 481.44 47.9075 482.446 48.3493C483.452 48.791 483.909 49.965 483.468 50.9712L479.847 59.2194C479.52 59.9655 478.791 60.4098 478.026 60.4098Z" fill="#77BC1F"/>
<path d="M497.116 87.346C496.41 87.346 495.727 86.9693 495.366 86.305L490.858 77.9931C490.335 77.0272 490.692 75.8195 491.658 75.2953C492.623 74.7705 493.831 75.1292 494.355 76.0952L498.862 84.407C499.386 85.373 499.028 86.5806 498.063 87.1049C497.761 87.2685 497.436 87.346 497.116 87.346Z" fill="#77BC1F"/>
<path d="M476.68 90.1816C476.224 90.1816 475.765 90.0254 475.391 89.7059C474.555 88.9928 474.455 87.7371 475.168 86.9009L479.426 81.9045C480.139 81.0685 481.394 80.9685 482.23 81.6814C483.065 82.3945 483.165 83.6502 482.453 84.4864L478.194 89.4828C477.801 89.9444 477.242 90.1816 476.68 90.1816Z" fill="#77BC1F"/>
<path opacity="0.2" d="M474.384 33.114C473.353 28.4192 472.209 24.197 470.96 20.4722C462.937 36.0042 460.291 64.7227 460.291 73.7766C460.291 81.9559 464.587 89.128 471.042 93.1691C476.111 88.2557 479.267 81.3786 479.267 73.7766C479.267 67.7649 478.074 49.9166 474.384 33.114Z" fill="#222222"/>
<path d="M459 89.032H445.54V110.249H459V89.032Z" fill="#997668"/>
<path opacity="0.2" d="M452.27 89.032H445.54V110.249H452.27V89.032Z" fill="#222222"/>
<path opacity="0.3" d="M445.54 89.032V99.9369C447.692 100.491 449.947 100.786 452.27 100.786C454.593 100.786 456.848 100.491 459 99.9369V89.032H445.54Z" fill="#222222"/>
<path d="M475.124 73.7764C475.124 61.1481 469.978 3.70093 452.27 3.70093C434.562 3.70093 429.416 61.1481 429.416 73.7764C429.416 86.4042 439.648 96.6413 452.27 96.6413C464.892 96.6416 475.124 86.4042 475.124 73.7764Z" fill="#77BC1F"/>
<path opacity="0.2" d="M452.27 3.70117C434.562 3.70117 429.416 61.1483 429.416 73.7766C429.416 86.4044 439.648 96.6416 452.27 96.6416V3.70117Z" fill="#218649"/>
<path d="M440.448 38.6918C439.993 38.6918 439.536 38.5366 439.162 38.219C438.324 37.5078 438.222 36.2521 438.933 35.4145L445.526 27.6449C446.237 26.8071 447.491 26.7047 448.329 27.4157C449.166 28.127 449.269 29.3827 448.558 30.2202L441.965 37.9898C441.571 38.4536 441.011 38.6918 440.448 38.6918Z" fill="#218649"/>
<path d="M460.293 23.2045C459.698 23.2045 459.109 22.9387 458.718 22.4314L453.467 15.6342C452.795 14.7648 452.955 13.5152 453.825 12.8429C454.693 12.1715 455.943 12.3312 456.614 13.2008L461.865 19.9981C462.536 20.8675 462.377 22.1171 461.507 22.7893C461.145 23.069 460.717 23.2045 460.293 23.2045Z" fill="#218649"/>
<path d="M463.094 86.8385C462.564 86.8385 462.035 86.6279 461.644 86.2111C460.892 85.4104 460.931 84.151 461.732 83.3986L468.152 77.3644C468.953 76.6117 470.211 76.6512 470.963 77.4522C471.715 78.2529 471.676 79.5123 470.875 80.2646L464.455 86.2989C464.071 86.6597 463.582 86.8385 463.094 86.8385Z" fill="#218649"/>
<path d="M445.815 88.4112C445.266 88.4112 444.719 88.1849 444.326 87.7419L438.499 81.1688C437.77 80.3466 437.845 79.0891 438.667 78.3598C439.489 77.6308 440.746 77.7058 441.475 78.5283L447.302 85.1013C448.031 85.9235 447.955 87.181 447.134 87.9103C446.755 88.246 446.284 88.4112 445.815 88.4112Z" fill="#218649"/>
<path d="M458.949 57.4318C458.519 57.4318 458.086 57.293 457.722 57.0062C456.858 56.3271 456.708 55.0764 457.387 54.2124L464.114 45.649C464.793 44.7846 466.044 44.6353 466.907 45.3142C467.77 45.9931 467.92 47.244 467.242 48.1081L460.514 56.6714C460.122 57.1713 459.539 57.4318 458.949 57.4318Z" fill="#218649"/>
<path d="M444.279 64.8532C443.551 64.8532 442.849 64.4516 442.5 63.7559L438.038 54.8694C437.545 53.8875 437.941 52.6916 438.923 52.1984C439.904 51.7054 441.099 52.101 441.592 53.0834L446.054 61.9699C446.547 62.9518 446.151 64.1478 445.17 64.641C444.884 64.7848 444.579 64.8532 444.279 64.8532Z" fill="#218649"/>
<path d="M464.323 74.5202C463.619 74.5202 462.937 74.1456 462.575 73.4836L458.563 66.1292C458.037 65.1646 458.392 63.9559 459.355 63.4293C460.32 62.9024 461.528 63.2582 462.054 64.2223L466.067 71.5767C466.593 72.5413 466.238 73.75 465.274 74.2766C464.972 74.4419 464.645 74.5202 464.323 74.5202Z" fill="#218649"/>
<path d="M457.399 39.4015C456.95 39.4015 456.498 39.2503 456.127 38.9401C455.283 38.2368 455.169 36.9819 455.872 36.1378L460.787 30.2391C461.49 29.3951 462.744 29.2813 463.588 29.9846C464.431 30.6879 464.545 31.9428 463.842 32.787L458.928 38.6857C458.534 39.1577 457.968 39.4015 457.399 39.4015Z" fill="#218649"/>
</g>
<g clip-path="url(#clip1_98_5)">
<path d="M29.5843 89.032H16.124V110.249H29.5843V89.032Z" fill="#997668"/>
<path opacity="0.2" d="M22.8543 89.032H16.124V110.249H22.8543V89.032Z" fill="#222222"/>
<path opacity="0.3" d="M16.124 89.032V99.9369C18.2761 100.491 20.5314 100.786 22.854 100.786C25.1769 100.786 27.4319 100.491 29.5843 99.9369V89.032H16.124Z" fill="#222222"/>
<path d="M45.7083 73.7764C45.7083 61.1481 40.5625 3.70093 22.8542 3.70093C5.14588 3.70119 0 61.1483 0 73.7764C0 86.4042 10.2321 96.6413 22.8542 96.6413C35.4762 96.6413 45.7083 86.4042 45.7083 73.7764Z" fill="#218649"/>
<path opacity="0.2" d="M38.4 24.239C37.6011 26.9772 36.8496 29.9345 36.1517 33.1141C32.4621 49.9167 31.2686 67.765 31.2686 73.7768C31.2686 80.4093 33.6718 86.4897 37.6509 91.1961C42.5786 87.0017 45.7086 80.7563 45.7086 73.7768C45.7086 66.1289 43.8212 42.0473 38.4 24.239Z" fill="#222222"/>
<path opacity="0.2" d="M22.8542 3.70117C5.14588 3.70117 0 61.1483 0 73.7764C0 86.4041 10.2321 96.6413 22.8542 96.6413V3.70117Z" fill="#222222"/>
<path d="M8.53134 79.5048C8.04501 79.5048 7.55737 79.3273 7.17393 78.9686C6.37153 78.2184 6.32857 76.9592 7.07874 76.1562L13.0893 69.7208C13.8395 68.9182 15.098 68.8755 15.9004 69.6258C16.7028 70.3761 16.7458 71.6352 15.9956 72.4383L9.985 78.8736C9.59308 79.2928 9.06274 79.5048 8.53134 79.5048Z" fill="#77BC1F"/>
<path d="M32.2219 32.1135C31.5818 32.1135 30.953 31.8047 30.5693 31.233L25.6194 23.8605C25.0069 22.9484 25.2495 21.7121 26.1612 21.0995C27.0728 20.4867 28.3088 20.7294 28.921 21.6418L33.871 29.0143C34.4835 29.9264 34.2409 31.1627 33.329 31.7752C32.9887 32.0039 32.6032 32.1135 32.2219 32.1135Z" fill="#77BC1F"/>
<path d="M15.4258 27.9516C15.1694 27.9516 14.9085 27.9017 14.6571 27.7961C13.6444 27.3706 13.1679 26.2046 13.593 25.1914L17.6559 15.5047C18.081 14.4918 19.2461 14.0153 20.2593 14.4398C21.272 14.8653 21.7485 16.0313 21.3235 17.0445L17.2605 26.7312C16.941 27.4929 16.2028 27.9516 15.4258 27.9516Z" fill="#77BC1F"/>
<path d="M12.5968 54.2779C11.9305 54.2779 11.2795 53.9431 10.9035 53.3342L6.84053 46.7603C6.26273 45.826 6.55203 44.5995 7.48622 44.0217C8.42068 43.4436 9.64629 43.7327 10.2236 44.6677L14.2865 51.2415C14.8643 52.1759 14.575 53.4024 13.6408 53.9802C13.3149 54.1819 12.9538 54.2779 12.5968 54.2779Z" fill="#77BC1F"/>
<path d="M28.3308 91.7737C27.8649 91.7737 27.3971 91.611 27.0195 91.2794C26.194 90.5544 26.1124 89.2971 26.8371 88.4712L32.6708 81.8223C33.3953 80.9966 34.6519 80.9147 35.4774 81.6397C36.3028 82.3648 36.3845 83.6221 35.6601 84.4479L29.8263 91.0966C29.4331 91.5447 28.8834 91.7737 28.3308 91.7737Z" fill="#77BC1F"/>
<path d="M32.2214 62.6948C31.4702 62.6948 30.7511 62.2666 30.4148 61.5397L26.5259 53.123C26.065 52.1255 26.4993 50.9431 27.4964 50.482C28.4934 50.0209 29.6753 50.4557 30.1361 51.453L34.0251 59.8696C34.486 60.8672 34.0516 62.0496 33.0546 62.5107C32.7844 62.6354 32.5007 62.6948 32.2214 62.6948Z" fill="#77BC1F"/>
<path d="M95.8704 89.032H82.4102V110.249H95.8704V89.032Z" fill="#997668"/>
<path opacity="0.2" d="M89.1402 89.032H82.4102V110.249H89.1402V89.032Z" fill="#222222"/>
<path opacity="0.3" d="M82.4102 89.032V99.9369C84.5623 100.491 86.8175 100.786 89.1402 100.786C91.4631 100.786 93.7181 100.491 95.8704 99.9369V89.032H82.4102Z" fill="#222222"/>
<path d="M111.994 73.7764C111.994 61.1481 106.849 10.2637 89.1403 10.2637C71.432 10.2637 66.2861 61.1483 66.2861 73.7764C66.2861 86.4042 76.5182 96.6413 89.1403 96.6413C101.762 96.6413 111.994 86.4042 111.994 73.7764Z" fill="#218649"/>
<path opacity="0.2" d="M66.2861 73.7764C66.2861 86.4042 76.5182 96.6413 89.1403 96.6413V10.2637C71.4318 10.2637 66.2861 61.1483 66.2861 73.7764Z" fill="#222222"/>
<path d="M85.5281 35.3602C84.7153 35.3602 83.9525 34.8583 83.6586 34.0497L80.6455 25.7529C80.2703 24.7198 80.8033 23.5785 81.8356 23.2034C82.8679 22.8282 84.0089 23.361 84.3841 24.3938L87.3973 32.6905C87.7722 33.7233 87.2395 34.8649 86.2072 35.2401C85.9828 35.3215 85.7537 35.3602 85.5281 35.3602Z" fill="#77BC1F"/>
<path d="M100.191 62.1485C99.83 62.1485 99.4641 62.05 99.1355 61.8436C98.2053 61.2594 97.9248 60.0311 98.5089 59.1004L103.282 51.4951C103.866 50.5647 105.093 50.2837 106.024 50.8682C106.954 51.4523 107.235 52.6807 106.65 53.6114L101.877 61.2167C101.5 61.8184 100.853 62.1485 100.191 62.1485Z" fill="#77BC1F"/>
<path d="M94.714 44.0383C94.112 44.0383 93.517 43.7661 93.1261 43.2485C92.4638 42.3716 92.6369 41.1239 93.513 40.4612L100.231 35.3802C101.107 34.7175 102.354 34.891 103.016 35.7672C103.679 36.6441 103.505 37.8918 102.629 38.5545L95.9115 43.6355C95.5527 43.9069 95.1316 44.0383 94.714 44.0383Z" fill="#77BC1F"/>
<path d="M84.0206 60.4098C83.7536 60.4098 83.4823 60.3557 83.2219 60.2414C82.2162 59.7996 81.759 58.6257 82.2005 57.6194L85.8206 49.3712C86.2621 48.3649 87.4352 47.9075 88.4413 48.3493C89.447 48.791 89.9042 49.965 89.4627 50.9712L85.8426 59.2194C85.5154 59.9655 84.7856 60.4098 84.0206 60.4098Z" fill="#77BC1F"/>
<path d="M103.111 87.346C102.405 87.346 101.722 86.9693 101.361 86.305L96.8534 77.9931C96.3297 77.0272 96.6874 75.8195 97.6529 75.2953C98.6184 74.7705 99.8257 75.1292 100.35 76.0952L104.858 84.407C105.381 85.373 105.023 86.5806 104.058 87.1049C103.757 87.2685 103.431 87.346 103.111 87.346Z" fill="#77BC1F"/>
<path d="M82.6754 90.1816C82.2191 90.1816 81.7603 90.0254 81.3859 89.7059C80.5501 88.9928 80.4504 87.7371 81.1629 86.9009L85.421 81.9045C86.1338 81.0685 87.3891 80.9685 88.2246 81.6814C89.0605 82.3945 89.1602 83.6502 88.4477 84.4864L84.1896 89.4828C83.7963 89.9444 83.2376 90.1816 82.6754 90.1816Z" fill="#77BC1F"/>
<path opacity="0.2" d="M80.3794 33.114C79.3484 28.4192 78.2039 24.197 76.9555 20.4722C68.932 36.0042 66.2861 64.7227 66.2861 73.7766C66.2861 81.9559 70.5821 89.128 77.0366 93.1691C82.1059 88.2557 85.2622 81.3786 85.2622 73.7766C85.2624 67.7649 84.0692 49.9166 80.3794 33.114Z" fill="#222222"/>
<path d="M64.9954 89.032H51.5352V110.249H64.9954V89.032Z" fill="#997668"/>
<path opacity="0.2" d="M58.2652 89.032H51.5352V110.249H58.2652V89.032Z" fill="#222222"/>
<path opacity="0.3" d="M51.5352 89.032V99.9369C53.6873 100.491 55.9425 100.786 58.2652 100.786C60.588 100.786 62.8433 100.491 64.9954 99.9369V89.032H51.5352Z" fill="#222222"/>
<path d="M81.1192 73.7764C81.1192 61.1481 75.9733 3.70093 58.2653 3.70093C40.557 3.70093 35.4111 61.1481 35.4111 73.7764C35.4111 86.4042 45.6432 96.6413 58.2653 96.6413C70.8871 96.6416 81.1192 86.4042 81.1192 73.7764Z" fill="#77BC1F"/>
<path opacity="0.2" d="M58.2653 3.70117C40.557 3.70117 35.4111 61.1483 35.4111 73.7766C35.4111 86.4044 45.6432 96.6416 58.2653 96.6416V3.70117Z" fill="#218649"/>
<path d="M46.4431 38.6918C45.9881 38.6918 45.5309 38.5366 45.1568 38.219C44.3193 37.5078 44.217 36.2521 44.9279 35.4145L51.5208 27.6449C52.232 26.8071 53.4865 26.7047 54.3239 27.4157C55.1613 28.127 55.264 29.3827 54.5528 30.2202L47.9599 37.9898C47.5666 38.4536 47.0066 38.6918 46.4431 38.6918Z" fill="#218649"/>
<path d="M66.2877 23.2045C65.6929 23.2045 65.1045 22.9387 64.7128 22.4314L59.4622 15.6342C58.7905 14.7648 58.9504 13.5152 59.8196 12.8429C60.6886 12.1715 61.9378 12.3312 62.6092 13.2008L67.8598 19.9981C68.5315 20.8675 68.3716 22.1171 67.5024 22.7893C67.1404 23.069 66.7122 23.2045 66.2877 23.2045Z" fill="#218649"/>
<path d="M69.0889 86.8385C68.5588 86.8385 68.0303 86.6279 67.6389 86.2111C66.8869 85.4104 66.9261 84.151 67.7267 83.3986L74.147 77.3644C74.9478 76.6117 76.2063 76.6512 76.9583 77.4522C77.7103 78.2529 77.6711 79.5123 76.8705 80.2646L70.4502 86.2989C70.0663 86.6597 69.577 86.8385 69.0889 86.8385Z" fill="#218649"/>
<path d="M51.81 88.4112C51.2608 88.4112 50.7143 88.1849 50.3213 87.7419L44.4942 81.1688C43.7652 80.3466 43.8406 79.0891 44.6623 78.3598C45.4838 77.6308 46.741 77.7058 47.4697 78.5283L53.2968 85.1013C54.0257 85.9235 53.9504 87.181 53.1287 87.9103C52.7503 88.246 52.2791 88.4112 51.81 88.4112Z" fill="#218649"/>
<path d="M64.9445 57.4318C64.5144 57.4318 64.0811 57.293 63.7168 57.0062C62.8534 56.3271 62.7036 55.0764 63.3822 54.2124L70.1095 45.649C70.7881 44.7846 72.0386 44.6353 72.902 45.3142C73.7654 45.9931 73.9152 47.244 73.2367 48.1081L66.5093 56.6714C66.1171 57.1713 65.5338 57.4318 64.9445 57.4318Z" fill="#218649"/>
<path d="M50.2741 64.8532C49.5459 64.8532 48.8446 64.4516 48.4953 63.7559L44.0333 54.8694C43.5404 53.8875 43.9363 52.6916 44.9176 52.1984C45.8988 51.7054 47.0944 52.101 47.5874 53.0834L52.0494 61.9699C52.5423 62.9518 52.1464 64.1478 51.1651 64.641C50.8789 64.7848 50.5743 64.8532 50.2741 64.8532Z" fill="#218649"/>
<path d="M70.318 74.5202C69.6137 74.5202 68.9317 74.1456 68.5706 73.4836L64.558 66.1292C64.0316 65.1646 64.3867 63.9559 65.3506 63.4293C66.315 62.9024 67.5231 63.2582 68.0492 64.2223L72.0618 71.5767C72.5881 72.5413 72.2331 73.75 71.2692 74.2766C70.9666 74.4419 70.6399 74.5202 70.318 74.5202Z" fill="#218649"/>
<path d="M63.394 39.4015C62.9451 39.4015 62.4935 39.2503 62.1217 38.9401C61.2779 38.2368 61.1642 36.9819 61.8674 36.1378L66.7818 30.2391C67.4853 29.3951 68.7393 29.2813 69.5828 29.9846C70.4266 30.6879 70.5403 31.9428 69.8371 32.787L64.9227 38.6857C64.5295 39.1577 63.9636 39.4015 63.394 39.4015Z" fill="#218649"/>
</g>
<defs>
<clipPath id="clip0_98_5">
<rect width="111.995" height="112.05" fill="white" transform="translate(394.005 0.949951)"/>
</clipPath>
<clipPath id="clip1_98_5">
<rect width="111.995" height="112.05" fill="white" transform="translate(0 0.949951)"/>
</clipPath>
</defs>
</svg>
