<svg width="44" height="41" viewBox="0 0 44 41" fill="none" xmlns="http://www.w3.org/2000/svg">
<g clip-path="url(#clip0_99_2)">
<path d="M26.551 10.6041L24.0249 10.6041C23.9426 8.97947 23.1983 7.42136 21.9557 6.27256C20.7132 5.12376 19.0742 4.47837 17.3992 4.47837C15.7243 4.47837 14.1506 5.12376 13.0245 6.27256C11.8983 7.42136 11.3119 8.97947 11.3942 10.6041H8.86801C8.7528 8.32961 9.57381 6.14826 11.1505 4.53994C12.7271 2.93162 14.9302 2.02808 17.2751 2.02808C19.62 2.02808 21.9147 2.93162 23.6542 4.53994C25.3938 6.14826 26.4358 8.32961 26.551 10.6041Z" fill="#4C5C66"/>
<path d="M33.3004 19.1802C32.6479 19.1825 32.0161 19.3515 31.4685 19.6703C31.1014 19.1464 30.608 18.7144 30.0342 18.4146C29.4603 18.1147 28.8246 17.9566 28.186 17.9551C27.5336 17.9573 26.9017 18.1264 26.3541 18.4451C25.8591 17.7437 25.1412 17.2141 24.3177 16.9427C23.4942 16.6712 22.6137 16.674 21.8198 16.9504L21.4983 10.6042C21.4489 9.62937 21.0023 8.6945 20.2568 8.00522C19.5113 7.31594 18.5279 6.92871 17.5229 6.92871C16.5179 6.92871 15.5737 7.31594 14.898 8.00522C14.2223 8.6945 13.8705 9.62937 13.9199 10.6042L14.6087 24.2033L11.6977 22.3411C11.0284 21.8747 10.2309 21.6252 9.4261 21.6305C8.67445 21.6287 7.95021 21.8437 7.34546 22.2482C6.74071 22.6527 6.28277 23.2284 6.02985 23.9022C5.77694 24.5759 5.74048 25.3172 5.92512 26.0318C6.10975 26.7465 6.50714 27.4022 7.06675 27.9155L17.6244 36.8591C19.1178 38.1011 21.006 38.7861 22.9257 38.7826H29.241C31.5859 38.7826 33.789 37.879 35.3657 36.2707C36.9423 34.6624 37.7633 32.481 37.6481 30.2065L37.2758 22.8556C37.2264 21.8809 36.7798 20.946 36.0343 20.2567C35.2888 19.5674 34.3053 19.1802 33.3004 19.1802V19.1802ZM35.122 30.2065C35.2043 31.8312 34.6178 33.3893 33.4917 34.5381C32.3655 35.6869 30.7919 36.3323 29.1169 36.3323H22.8015C21.5256 36.3473 20.2647 35.9119 19.2534 35.1071L8.75894 26.1635C8.51403 25.9354 8.36688 25.6273 8.34921 25.3059C8.33768 25.0784 8.3917 24.8554 8.50522 24.6618C8.61873 24.4683 8.78726 24.3119 8.99191 24.2101C9.19656 24.1084 9.42925 24.0653 9.6639 24.0857C9.89856 24.1062 10.1259 24.1893 10.3205 24.3258L17.3707 28.8589L16.446 10.6042C16.4295 10.2792 16.5468 9.96761 16.7721 9.73785C16.9973 9.50809 17.312 9.37901 17.647 9.37901C17.982 9.37901 18.3098 9.50809 18.5583 9.73785C18.8068 9.96761 18.9557 10.2792 18.9721 10.6042L19.6548 24.0808H22.1809L21.9948 20.4053C21.9783 20.0804 22.0956 19.7688 22.3208 19.539C22.5461 19.3093 22.8608 19.1802 23.1958 19.1802C23.5308 19.1802 23.8586 19.3093 24.1071 19.539C24.3556 19.7688 24.5045 20.0804 24.5209 20.4053L24.7071 24.0808H27.2332L27.1091 21.6305C27.0927 21.3056 27.21 20.9939 27.4352 20.7642C27.6604 20.5344 27.9751 20.4053 28.3101 20.4053C28.6451 20.4053 28.9729 20.5344 29.2214 20.7642C29.47 20.9939 29.6188 21.3056 29.6353 21.6305L29.7594 24.0808H32.2855L32.2235 22.8556C32.207 22.5307 32.3243 22.2191 32.5495 21.9893C32.7748 21.7596 33.0895 21.6305 33.4245 21.6305C33.7595 21.6305 34.0873 21.7596 34.3358 21.9893C34.5843 22.2191 34.7332 22.5307 34.7496 22.8556L35.122 30.2065Z" fill="#4C5C66"/>
</g>
<defs>
<clipPath id="clip0_99_2">
<rect width="40.4183" height="39.255" fill="white" transform="matrix(1 0 0.0505899 0.99872 0.792969 0.802979)"/>
</clipPath>
</defs>
</svg>
