<svg width="5" height="5" viewBox="0 0 5 5" fill="none" xmlns="http://www.w3.org/2000/svg">
<path d="M2.39583 0.572895C2.39583 0.463801 2.5048 0.388289 2.60694 0.426593L3.93571 0.924862C4.19998 1.02396 4.37506 1.2766 4.37506 1.55884V2.23984C4.37506 2.34894 4.26609 2.42445 4.16395 2.38615L2.70833 1.84025V3.64581C2.70833 3.65719 2.70712 3.66828 2.70481 3.67896C2.7071 3.70226 2.70833 3.72598 2.70833 3.74998C2.70833 4.22075 2.23421 4.58331 1.66667 4.58331C1.09912 4.58331 0.625 4.22075 0.625 3.74998C0.625 3.27921 1.09912 2.91665 1.66667 2.91665C1.94836 2.91665 2.20704 3.00596 2.39615 3.1535L2.39583 0.572895Z" fill="#212121"/>
</svg>
