<svg width="64" height="64" viewBox="0 0 64 64" fill="none" xmlns="http://www.w3.org/2000/svg">
<g clip-path="url(#clip0_16_146)">
<path d="M10.4279 21.7141L54.9031 35.2198L18.2644 35.0937L10.4279 21.7141Z" fill="#C7E9F4"/>
<path d="M54.9027 35.2198L18.2641 35.0936L18.5039 57.3978L54.9027 35.2198Z" fill="#C7E9F4"/>
<path d="M20.2974 31.0034L11.7058 37.4777L20.4269 38.5594L20.2974 31.0034Z" fill="#C7E9F4"/>
<path d="M52.4996 30.2427L13.7226 18.197C12.7455 17.8934 11.9164 18.9506 12.4376 19.8374L18.821 30.6977L11.0242 36.573C10.2158 37.1821 10.5839 38.473 11.5825 38.5968L19.321 39.5565L19.5083 50.49C19.5235 51.3605 20.4793 51.903 21.2222 51.4518L52.7709 32.2861C53.5982 31.7883 53.4225 30.5291 52.4996 30.2427ZM44.5205 30.1161L20.9355 29.8824L15.8354 21.2053L44.5205 30.1161ZM14.6151 36.7042L19.2127 33.2397L19.282 37.283L14.6151 36.7042ZM21.7208 48.498C21.6784 46.0261 21.4834 34.6546 21.4404 32.1422L48.2072 32.4076L21.7208 48.498Z" fill="#13829B"/>
<path d="M34.9002 37.0558C34.5746 36.5224 33.8817 36.3491 33.3539 36.6696L26.9584 40.5546C26.4307 40.8752 26.2674 41.5678 26.5937 42.1016C26.6135 42.1341 26.6347 42.1653 26.6572 42.1951C27.0035 42.6547 27.6443 42.7888 28.1399 42.4878L34.5354 38.6027C35.0631 38.2822 35.2265 37.5895 34.9002 37.0558Z" fill="#13829B"/>
</g>
<defs>
<clipPath id="clip0_16_146">
<rect width="45" height="45" fill="white" transform="translate(36.3154 0.555664) rotate(53)"/>
</clipPath>
</defs>
</svg>
