<svg width="59" height="59" viewBox="0 0 59 59" fill="none" xmlns="http://www.w3.org/2000/svg">
<g clip-path="url(#clip0_41_21)">
<path d="M7.20536 48.0463C6.30057 48.0463 5.56445 48.7824 5.56445 49.6872C5.56445 50.592 6.30057 51.3281 7.20536 51.3281C8.11034 51.3281 8.84664 50.592 8.84664 49.6872C8.84683 48.7824 8.11052 48.0463 7.20536 48.0463Z" fill="black"/>
<path d="M49.8571 48.0463C48.9521 48.0463 48.2158 48.7824 48.2158 49.6872C48.2158 50.5921 48.9521 51.3285 49.8571 51.3285C50.7619 51.3285 51.498 50.5921 51.498 49.6872C51.498 48.7824 50.7619 48.0463 49.8571 48.0463Z" fill="black"/>
<path d="M50.875 41.1343L40.3393 2.95166C40.1819 2.38158 39.6631 1.98657 39.0718 1.98657L36.04 1.98657C35.3138 1.98657 34.7252 2.57524 34.7252 3.3014C34.7252 4.02756 35.3138 4.61623 36.04 4.61623H38.0707L41.3797 16.6088C41.3029 16.6157 41.2257 16.6283 41.1487 16.6497C40.4486 16.8428 40.0378 17.5669 40.2309 18.267L46.6903 41.6765C43.8942 42.7855 41.811 45.3158 41.341 48.3724H15.7201C15.0854 44.2436 11.5087 41.0719 7.20507 41.0719H1.31483C0.588667 41.0719 0 41.6606 0 42.3867C0 43.1129 0.588667 43.7015 1.31483 43.7015H3.98675C1.85766 44.8509 0.407409 47.1028 0.407409 49.6872C0.407409 53.4354 3.45687 56.4847 7.20507 56.4847C10.5554 56.4847 13.3453 54.0476 13.9005 50.8538C14.0816 50.9479 14.2871 51.002 14.5056 51.002H42.5559C42.7742 51.002 42.9797 50.9479 43.1609 50.8538C43.716 54.0481 46.5064 56.4851 49.8568 56.4851C53.2069 56.4851 55.9968 54.0477 56.5519 50.8538C56.7331 50.9479 56.9386 51.002 57.1571 51.002C57.8832 51.002 58.4719 50.4134 58.4719 49.6872C58.4717 45.2816 55.1469 41.6399 50.875 41.1343ZM7.20507 53.8552C4.90675 53.8552 3.03706 51.9855 3.03706 49.6874C3.03706 47.3893 4.90675 45.5196 7.20507 45.5196C9.5032 45.5196 11.3731 47.3893 11.3731 49.6874C11.3731 51.9855 9.50339 53.8552 7.20507 53.8552ZM49.8568 53.8556C47.5583 53.8556 45.6884 51.9857 45.6884 49.6874C45.6884 47.3893 47.5583 45.5196 49.8568 45.5196C52.1547 45.5196 54.0244 47.3893 54.0244 49.6874C54.0242 51.9857 52.1547 53.8556 49.8568 53.8556Z" fill="black"/>
</g>
<defs>
<clipPath id="clip0_41_21">
<rect width="58.4717" height="58.4717" fill="white"/>
</clipPath>
</defs>
</svg>
