<svg width="139" height="140" viewBox="0 0 139 140" fill="none" xmlns="http://www.w3.org/2000/svg">
<g clip-path="url(#clip0_73_407)">
<path d="M69.4904 0.698608L42.9951 40.2295H95.9855L69.4904 0.698608Z" fill="#FF7F3F"/>
<path d="M20.3535 21.0521L29.5711 67.7395L67.0413 30.2697L20.3535 21.0521Z" fill="#FF9500"/>
<path d="M0 70.1893L39.5312 96.6843L39.5315 43.694L0 70.1893Z" fill="#FF7F3F"/>
<path d="M20.3535 119.326L67.0413 110.109L29.5714 72.6381L20.3535 119.326Z" fill="#FF9500"/>
<path d="M69.4904 139.68L95.9858 100.149L42.9951 100.148L69.4904 139.68Z" fill="#FF7F3F"/>
<path d="M118.627 119.326L109.41 72.6384L71.9395 110.109L118.627 119.326Z" fill="#FF9500"/>
<path d="M138.982 70.189L99.4508 43.694L99.4502 96.6843L138.982 70.189Z" fill="#FF7F3F"/>
<path d="M118.628 21.0518L71.9404 30.2693L109.411 67.7398L118.628 21.0518Z" fill="#FF9500"/>
<path d="M69.491 116.525C95.0815 116.525 115.827 95.7795 115.827 70.189C115.827 44.5985 95.0815 23.8533 69.491 23.8533C43.9005 23.8533 23.1553 44.5985 23.1553 70.189C23.1553 95.7795 43.9005 116.525 69.491 116.525Z" fill="#FEDD3D"/>
<path opacity="0.3" d="M69.491 23.8533C43.9006 23.8533 23.1553 44.5986 23.1553 70.189C23.1553 95.7794 43.9006 116.525 69.491 116.525V23.8533Z" fill="#FF9500"/>
<path d="M44.3251 64.4169C46.258 64.4169 47.825 62.8499 47.825 60.917C47.825 58.9841 46.258 57.4171 44.3251 57.4171C42.3921 57.4171 40.8252 58.9841 40.8252 60.917C40.8252 62.8499 42.3921 64.4169 44.3251 64.4169Z" fill="#FF7F3F"/>
<path d="M94.6571 64.4169C96.5901 64.4169 98.157 62.8499 98.157 60.917C98.157 58.9841 96.5901 57.4171 94.6571 57.4171C92.7242 57.4171 91.1572 58.9841 91.1572 60.917C91.1572 62.8499 92.7242 64.4169 94.6571 64.4169Z" fill="#FF7F3F"/>
<path d="M56.1064 61.5928C56.1064 68.9844 62.099 74.9769 69.4906 74.9769C76.8822 74.9769 82.8748 68.9847 82.8748 61.5928H56.1064Z" fill="#FF7F3F"/>
</g>
<defs>
<clipPath id="clip0_73_407">
<rect width="138.981" height="138.981" fill="white" transform="translate(0 0.698608)"/>
</clipPath>
</defs>
</svg>
