<svg width="18" height="16" viewBox="0 0 18 16" fill="none" xmlns="http://www.w3.org/2000/svg">
<g clip-path="url(#clip0_38_508)">
<path d="M1.53955 7.25893C1.53955 7.25893 1.1394 6.06215 2.37315 6.50123C2.37315 6.50123 2.35605 5.24765 3.44058 6.01989C3.44058 6.01989 3.90538 5.19808 4.56408 5.85194C5.4509 6.72292 6.1343 8.17136 5.86054 10.7082L4.83779 10.3086C3.9947 8.81572 1.48821 8.87775 1.07284 8.06099C0.784845 7.49099 1.53955 7.25893 1.53955 7.25893Z" fill="#42ADE2"/>
<path d="M11.0874 5.00462L13.6965 5.47066C12.9038 3.15607 9.22343 3.66984 9.22343 3.66984C9.22343 3.66984 11.0294 4.13353 11.0874 5.00462Z" fill="#42ADE2"/>
<path d="M10.719 5.47852L13.4403 5.49543C11.9956 3.40302 8.50244 4.51642 8.50244 4.51642C8.50244 4.51642 10.4063 4.65189 10.719 5.47852Z" fill="#42ADE2"/>
<path d="M16.4622 6.75843L15.0497 6.6155L15.1181 7.32619C15.1162 7.30644 15.9536 7.12619 16.4622 6.75843Z" fill="#FFD93B"/>
<path d="M15.048 6.59573L16.3825 5.92927C15.4054 5.46547 14.3703 5.74446 14.3703 5.74446L15.048 6.59573Z" fill="#FFD93B"/>
<path d="M8.7576 12.2821L9.29654 12.2302L9.44671 13.7898C9.5256 13.8021 9.98375 13.7182 10.1891 13.6984C10.651 13.6539 11.0607 13.8735 11.0607 13.8735L8.93058 14.0786L8.7576 12.2821Z" fill="#E08828"/>
<path d="M11.0164 12.0647L11.5553 12.0128L11.7055 13.5724C11.7844 13.5847 12.2425 13.5008 12.4478 13.481C12.9098 13.4365 13.3195 13.6561 13.3195 13.6561L11.1894 13.8612L11.0164 12.0647Z" fill="#E08828"/>
<path d="M3.25416 9.46473C2.25328 9.56111 4.63903 12.8182 9.56647 12.3437C12.9028 12.0224 15.6013 10.7265 15.2914 7.5087C15.0994 5.51483 13.3011 4.05419 10.0019 5.02937C6.65511 6.04898 8.69488 8.94085 3.25416 9.46473Z" fill="#42ADE2"/>
<path d="M7.75754 12.1195C11.7611 11.734 11.1224 9.40454 14.7048 9.21899C13.6963 12.4641 7.75754 12.1195 7.75754 12.1195Z" fill="white"/>
<path d="M6.94576 7.71467C9.32585 5.53291 12.2477 8.43946 9.21271 10.0069C6.22525 11.5298 3.88606 9.56339 3.88606 9.56339C3.88606 9.56339 5.42304 9.11653 6.94576 7.71467Z" fill="#297B9D"/>
<path d="M13.0706 6.76625C12.7163 6.80037 12.4078 6.60707 12.3815 6.3345C12.3553 6.06193 12.6213 5.8133 12.9756 5.77919C13.3299 5.74507 13.6385 5.93837 13.6647 6.21094C13.691 6.48351 13.425 6.73213 13.0706 6.76625Z" fill="#3E4347"/>
</g>
<defs>
<clipPath id="clip0_38_508">
<rect width="16.5008" height="12.6929" fill="white" transform="matrix(-0.995396 0.0958458 0.0958458 0.995396 16.4248 0.984009)"/>
</clipPath>
</defs>
</svg>
