<svg width="16" height="12" viewBox="0 0 16 12" fill="none" xmlns="http://www.w3.org/2000/svg">
<g clip-path="url(#clip0_38_493)">
<path d="M14.2737 4.5265C14.2737 4.5265 14.5315 3.46087 13.4534 3.94212C13.4534 3.94212 13.3596 2.85931 12.4456 3.61556C12.4456 3.61556 11.9534 2.94525 11.4143 3.564C10.6877 4.389 10.1956 5.69525 10.6643 7.86087L11.5549 7.43119C12.1877 6.07337 14.4612 5.91869 14.7659 5.17962C14.9768 4.664 14.2737 4.5265 14.2737 4.5265Z" fill="#42ADE2"/>
<path d="M5.4375 3.37493L3.11719 3.99368C3.63281 1.93118 7.00781 2.06868 7.00781 2.06868C7.00781 2.06868 5.41406 2.61868 5.4375 3.37493Z" fill="#42ADE2"/>
<path d="M5.8125 3.75301L3.35156 3.99363C4.47656 2.06863 7.73438 2.73895 7.73438 2.73895C7.73438 2.73895 6.02344 3.01395 5.8125 3.75301Z" fill="#42ADE2"/>
<path d="M0.726562 5.33437L1.99219 5.09375V5.7125C1.99219 5.69531 1.21875 5.60938 0.726562 5.33437Z" fill="#FFD93B"/>
<path d="M1.99219 5.07652L0.726562 4.61246C1.57031 4.13121 2.53125 4.28589 2.53125 4.28589L1.99219 5.07652Z" fill="#FFD93B"/>
<path d="M8.17969 9.45935H7.6875V10.8172C7.61719 10.8344 7.19531 10.8 7.00781 10.8C6.58594 10.8 6.23438 11.0234 6.23438 11.0234H8.17969V9.45935Z" fill="#E08828"/>
<path d="M6.11719 9.45935H5.625V10.8172C5.55469 10.8344 5.13281 10.8 4.94531 10.8C4.52344 10.8 4.17188 11.0234 4.17188 11.0234H6.11719V9.45935Z" fill="#E08828"/>
<path d="M12.9141 6.5719C13.8281 6.5719 11.9531 9.57971 7.45312 9.57971C4.40625 9.57971 1.85156 8.68596 1.85156 5.8844C1.85156 4.14846 3.35156 2.73909 6.42187 3.30627C9.53906 3.90784 7.94531 6.5719 12.9141 6.5719Z" fill="#42ADE2"/>
<path d="M9.07031 9.2359C5.41406 9.2359 5.78906 7.1734 2.53125 7.3109C3.72656 10.0265 9.07031 9.2359 9.07031 9.2359Z" fill="white"/>
<path d="M9.42203 5.36873C7.07828 3.68435 4.68765 6.43435 7.57047 7.53435C10.4064 8.59998 12.3517 6.70935 12.3517 6.70935C12.3517 6.70935 10.922 6.45154 9.42203 5.36873Z" fill="#297B9D"/>
<path d="M3.79688 5.05933C4.12048 5.05933 4.38281 4.86695 4.38281 4.62964C4.38281 4.39233 4.12048 4.19995 3.79688 4.19995C3.47327 4.19995 3.21094 4.39233 3.21094 4.62964C3.21094 4.86695 3.47327 5.05933 3.79688 5.05933Z" fill="#3E4347"/>
</g>
<defs>
<clipPath id="clip0_38_493">
<rect width="15" height="11" fill="white" transform="translate(0.257812 0.349976)"/>
</clipPath>
</defs>
</svg>
