<svg width="324" height="33" viewBox="0 0 324 33" fill="none" xmlns="http://www.w3.org/2000/svg">
<g filter="url(#filter0_d_73_550)">
<path d="M9.06641 19.1631L4.31787 1.26758H6.74707L9.46924 12.9985C9.76221 14.2274 10.0145 15.4481 10.2261 16.6606C10.6818 14.7482 10.9504 13.6455 11.0317 13.3525L14.4375 1.26758H17.2939L19.8574 10.3252C20.5003 12.5713 20.9642 14.6831 21.249 16.6606C21.4769 15.5295 21.7739 14.2314 22.1401 12.7666L24.9478 1.26758H27.3281L22.4209 19.1631H20.1382L16.3662 5.52783C16.0488 4.38851 15.8617 3.68864 15.8047 3.42822C15.6175 4.25016 15.4425 4.95003 15.2798 5.52783L11.4834 19.1631H9.06641ZM30.0312 3.79443V1.26758H32.2285V3.79443H30.0312ZM30.0312 19.1631V6.19922H32.2285V19.1631H30.0312ZM36.311 19.1631V6.19922H38.2886V8.16455C38.7931 7.24495 39.257 6.63867 39.6802 6.3457C40.1115 6.05273 40.5835 5.90625 41.0962 5.90625C41.8368 5.90625 42.5895 6.14225 43.3545 6.61426L42.5977 8.65283C42.0605 8.33545 41.5234 8.17676 40.9863 8.17676C40.5062 8.17676 40.0749 8.32324 39.6924 8.61621C39.3099 8.90104 39.0373 9.2998 38.8745 9.8125C38.6304 10.5938 38.5083 11.4482 38.5083 12.376V19.1631H36.311ZM50.208 17.1978L50.5254 19.1387C49.9069 19.2689 49.3535 19.334 48.8652 19.334C48.0677 19.334 47.4492 19.2078 47.0098 18.9556C46.5703 18.7033 46.2611 18.3737 46.082 17.9668C45.903 17.5518 45.8135 16.6851 45.8135 15.3667V7.9082H44.2021V6.19922H45.8135V2.98877L47.9985 1.67041V6.19922H50.208V7.9082H47.9985V15.4888C47.9985 16.1154 48.0352 16.5182 48.1084 16.6973C48.1898 16.8763 48.3159 17.0187 48.4868 17.1245C48.6659 17.2303 48.9181 17.2832 49.2437 17.2832C49.4878 17.2832 49.8092 17.2547 50.208 17.1978ZM52.2397 15.2935L54.4126 14.9517C54.5347 15.8224 54.8724 16.4897 55.4258 16.9536C55.9873 17.4175 56.7686 17.6494 57.7695 17.6494C58.7786 17.6494 59.5273 17.446 60.0156 17.0391C60.5039 16.624 60.748 16.1398 60.748 15.5864C60.748 15.09 60.5324 14.6994 60.1011 14.4146C59.8 14.2192 59.0513 13.971 57.855 13.6699C56.2437 13.263 55.1247 12.9131 54.498 12.6201C53.8796 12.319 53.4076 11.908 53.082 11.3872C52.7646 10.8582 52.606 10.2764 52.606 9.6416C52.606 9.0638 52.7362 8.53076 52.9966 8.04248C53.2651 7.54606 53.6273 7.13509 54.083 6.80957C54.4248 6.55729 54.8887 6.3457 55.4746 6.1748C56.0687 5.99577 56.7035 5.90625 57.3789 5.90625C58.3962 5.90625 59.2873 6.05273 60.0522 6.3457C60.8254 6.63867 61.395 7.03743 61.7612 7.54199C62.1274 8.03841 62.3797 8.70573 62.5181 9.54395L60.3696 9.83691C60.272 9.1696 59.9871 8.64876 59.5151 8.27441C59.0513 7.90007 58.3921 7.71289 57.5376 7.71289C56.5285 7.71289 55.8083 7.87972 55.377 8.21338C54.9456 8.54704 54.73 8.93766 54.73 9.38525C54.73 9.67008 54.8195 9.92643 54.9985 10.1543C55.1776 10.3903 55.4583 10.5856 55.8408 10.7402C56.0605 10.8216 56.7075 11.0088 57.7817 11.3018C59.3361 11.7168 60.4185 12.0586 61.0288 12.3271C61.6473 12.5876 62.1315 12.9701 62.4814 13.4746C62.8314 13.9792 63.0063 14.6058 63.0063 15.3545C63.0063 16.0869 62.7907 16.7786 62.3594 17.4297C61.9362 18.0726 61.3218 18.5731 60.5161 18.9312C59.7104 19.2811 58.799 19.4561 57.7817 19.4561C56.0972 19.4561 54.8114 19.1061 53.9243 18.4062C53.0454 17.7064 52.4839 16.6688 52.2397 15.2935ZM74.8281 14.4146L76.9888 14.6953C76.7528 16.1846 76.1465 17.3524 75.1699 18.1987C74.2015 19.0369 73.0093 19.4561 71.5933 19.4561C69.8192 19.4561 68.391 18.8783 67.3086 17.7227C66.2344 16.5589 65.6973 14.8947 65.6973 12.73C65.6973 11.3302 65.9292 10.1055 66.3931 9.05566C66.8569 8.00586 67.5609 7.22054 68.5049 6.69971C69.457 6.17074 70.4906 5.90625 71.6055 5.90625C73.0133 5.90625 74.1649 6.26432 75.0601 6.98047C75.9552 7.68848 76.529 8.69759 76.7812 10.0078L74.645 10.3374C74.4416 9.46663 74.0794 8.81152 73.5586 8.37207C73.0459 7.93262 72.4233 7.71289 71.6909 7.71289C70.5841 7.71289 69.6849 8.11165 68.9932 8.90918C68.3014 9.69857 67.9556 10.9518 67.9556 12.6689C67.9556 14.4105 68.2892 15.6759 68.9565 16.4653C69.6239 17.2547 70.4946 17.6494 71.5688 17.6494C72.4315 17.6494 73.1517 17.3849 73.7295 16.856C74.3073 16.327 74.6735 15.5132 74.8281 14.4146ZM79.6187 19.1631V1.26758H81.8159V7.68848C82.8413 6.50033 84.1353 5.90625 85.6978 5.90625C86.658 5.90625 87.4922 6.09749 88.2002 6.47998C88.9082 6.85433 89.4128 7.37516 89.7139 8.04248C90.0231 8.7098 90.1777 9.67822 90.1777 10.9478V19.1631H87.9805V10.9478C87.9805 9.84912 87.7404 9.0516 87.2603 8.55518C86.7882 8.05062 86.1169 7.79834 85.2461 7.79834C84.5951 7.79834 83.9806 7.96924 83.4028 8.31104C82.8332 8.64469 82.4263 9.10042 82.1821 9.67822C81.938 10.256 81.8159 11.0535 81.8159 12.0708V19.1631H79.6187ZM102.744 17.564C101.93 18.2557 101.145 18.744 100.388 19.0288C99.6395 19.3136 98.8338 19.4561 97.9712 19.4561C96.547 19.4561 95.4525 19.1102 94.6875 18.4185C93.9225 17.7186 93.54 16.8275 93.54 15.7451C93.54 15.1104 93.6825 14.5326 93.9673 14.0117C94.2603 13.4827 94.6387 13.0596 95.1025 12.7422C95.5745 12.4248 96.1035 12.1847 96.6895 12.022C97.1208 11.908 97.7718 11.7982 98.6426 11.6924C100.417 11.4808 101.723 11.2285 102.561 10.9355C102.569 10.6344 102.573 10.4432 102.573 10.3618C102.573 9.46663 102.366 8.83594 101.951 8.46973C101.389 7.97331 100.555 7.7251 99.4482 7.7251C98.4147 7.7251 97.6497 7.9082 97.1533 8.27441C96.665 8.63249 96.3029 9.27132 96.0669 10.1909L93.9185 9.89795C94.1138 8.97835 94.4352 8.23779 94.8828 7.67627C95.3304 7.10661 95.9774 6.67122 96.8237 6.37012C97.6701 6.06087 98.6507 5.90625 99.7656 5.90625C100.872 5.90625 101.772 6.03646 102.463 6.29688C103.155 6.55729 103.664 6.88688 103.989 7.28564C104.315 7.67627 104.543 8.17269 104.673 8.7749C104.746 9.14925 104.783 9.82471 104.783 10.8013V13.731C104.783 15.7736 104.827 17.0675 104.917 17.6128C105.015 18.1499 105.202 18.6667 105.479 19.1631H103.184C102.956 18.7074 102.809 18.1743 102.744 17.564ZM102.561 12.6567C101.764 12.9823 100.567 13.259 98.9722 13.4868C98.0688 13.617 97.43 13.7635 97.0557 13.9263C96.6813 14.089 96.3924 14.3291 96.189 14.6465C95.9855 14.9557 95.8838 15.3016 95.8838 15.6841C95.8838 16.27 96.1035 16.7583 96.543 17.1489C96.9906 17.5396 97.6416 17.7349 98.4961 17.7349C99.3424 17.7349 100.095 17.5518 100.754 17.1855C101.414 16.8112 101.898 16.3026 102.207 15.6597C102.443 15.1632 102.561 14.4308 102.561 13.4624V12.6567ZM109.476 19.1631V7.9082H107.535V6.19922H109.476V4.81982C109.476 3.94906 109.553 3.30208 109.708 2.87891C109.919 2.30924 110.289 1.84945 110.818 1.49951C111.355 1.14144 112.104 0.962402 113.064 0.962402C113.683 0.962402 114.367 1.03564 115.115 1.18213L114.786 3.09863C114.33 3.01725 113.899 2.97656 113.492 2.97656C112.824 2.97656 112.352 3.11898 112.076 3.40381C111.799 3.68864 111.661 4.22168 111.661 5.00293V6.19922H114.188V7.9082H111.661V19.1631H109.476ZM121.456 17.1978L121.773 19.1387C121.155 19.2689 120.602 19.334 120.113 19.334C119.316 19.334 118.697 19.2078 118.258 18.9556C117.818 18.7033 117.509 18.3737 117.33 17.9668C117.151 17.5518 117.062 16.6851 117.062 15.3667V7.9082H115.45V6.19922H117.062V2.98877L119.247 1.67041V6.19922H121.456V7.9082H119.247V15.4888C119.247 16.1154 119.283 16.5182 119.356 16.6973C119.438 16.8763 119.564 17.0187 119.735 17.1245C119.914 17.2303 120.166 17.2832 120.492 17.2832C120.736 17.2832 121.057 17.2547 121.456 17.1978ZM123.488 15.2935L125.661 14.9517C125.783 15.8224 126.12 16.4897 126.674 16.9536C127.235 17.4175 128.017 17.6494 129.018 17.6494C130.027 17.6494 130.775 17.446 131.264 17.0391C131.752 16.624 131.996 16.1398 131.996 15.5864C131.996 15.09 131.78 14.6994 131.349 14.4146C131.048 14.2192 130.299 13.971 129.103 13.6699C127.492 13.263 126.373 12.9131 125.746 12.6201C125.128 12.319 124.656 11.908 124.33 11.3872C124.013 10.8582 123.854 10.2764 123.854 9.6416C123.854 9.0638 123.984 8.53076 124.245 8.04248C124.513 7.54606 124.875 7.13509 125.331 6.80957C125.673 6.55729 126.137 6.3457 126.723 6.1748C127.317 5.99577 127.951 5.90625 128.627 5.90625C129.644 5.90625 130.535 6.05273 131.3 6.3457C132.073 6.63867 132.643 7.03743 133.009 7.54199C133.375 8.03841 133.628 8.70573 133.766 9.54395L131.618 9.83691C131.52 9.1696 131.235 8.64876 130.763 8.27441C130.299 7.90007 129.64 7.71289 128.786 7.71289C127.777 7.71289 127.056 7.87972 126.625 8.21338C126.194 8.54704 125.978 8.93766 125.978 9.38525C125.978 9.67008 126.068 9.92643 126.247 10.1543C126.426 10.3903 126.706 10.5856 127.089 10.7402C127.309 10.8216 127.956 11.0088 129.03 11.3018C130.584 11.7168 131.667 12.0586 132.277 12.3271C132.895 12.5876 133.38 12.9701 133.729 13.4746C134.079 13.9792 134.254 14.6058 134.254 15.3545C134.254 16.0869 134.039 16.7786 133.607 17.4297C133.184 18.0726 132.57 18.5731 131.764 18.9312C130.958 19.2811 130.047 19.4561 129.03 19.4561C127.345 19.4561 126.059 19.1061 125.172 18.4062C124.293 17.7064 123.732 16.6688 123.488 15.2935ZM137.629 3.79443V1.26758H139.826V3.79443H137.629ZM137.629 19.1631V6.19922H139.826V19.1631H137.629ZM143.933 19.1631V6.19922H145.911V8.04248C146.863 6.61833 148.238 5.90625 150.037 5.90625C150.818 5.90625 151.534 6.04867 152.185 6.3335C152.844 6.61019 153.337 6.9764 153.662 7.43213C153.988 7.88786 154.215 8.42904 154.346 9.05566C154.427 9.46257 154.468 10.1746 154.468 11.1919V19.1631H152.271V11.2773C152.271 10.3822 152.185 9.71484 152.014 9.27539C151.843 8.8278 151.538 8.4738 151.099 8.21338C150.667 7.94482 150.159 7.81055 149.573 7.81055C148.637 7.81055 147.827 8.10758 147.144 8.70166C146.468 9.29574 146.13 10.4229 146.13 12.083V19.1631H143.933ZM158.196 20.2373L160.333 20.5547C160.422 21.2139 160.67 21.694 161.077 21.9951C161.622 22.402 162.367 22.6055 163.311 22.6055C164.328 22.6055 165.114 22.402 165.667 21.9951C166.22 21.5882 166.595 21.0186 166.79 20.2861C166.904 19.8385 166.957 18.8986 166.949 17.4663C165.988 18.5975 164.792 19.1631 163.36 19.1631C161.578 19.1631 160.198 18.5202 159.222 17.2344C158.245 15.9486 157.757 14.4064 157.757 12.6079C157.757 11.3709 157.981 10.2316 158.428 9.18994C158.876 8.14014 159.523 7.3304 160.369 6.76074C161.224 6.19108 162.225 5.90625 163.372 5.90625C164.902 5.90625 166.163 6.52474 167.156 7.76172V6.19922H169.183V17.4053C169.183 19.4235 168.975 20.8517 168.56 21.6899C168.153 22.5363 167.502 23.2036 166.607 23.6919C165.72 24.1802 164.625 24.4243 163.323 24.4243C161.777 24.4243 160.528 24.0744 159.576 23.3745C158.624 22.6828 158.164 21.637 158.196 20.2373ZM160.015 12.4492C160.015 14.1501 160.353 15.3911 161.028 16.1724C161.704 16.9536 162.55 17.3442 163.567 17.3442C164.576 17.3442 165.423 16.9577 166.106 16.1846C166.79 15.4033 167.132 14.1826 167.132 12.5225C167.132 10.9355 166.778 9.73926 166.07 8.93359C165.37 8.12793 164.524 7.7251 163.531 7.7251C162.554 7.7251 161.724 8.12386 161.041 8.92139C160.357 9.71077 160.015 10.8867 160.015 12.4492ZM182.14 14.9883L184.41 15.269C184.052 16.5955 183.389 17.625 182.42 18.3574C181.452 19.0898 180.215 19.4561 178.709 19.4561C176.813 19.4561 175.308 18.8742 174.193 17.7104C173.086 16.5386 172.533 14.8988 172.533 12.791C172.533 10.61 173.094 8.91732 174.217 7.71289C175.34 6.50846 176.797 5.90625 178.587 5.90625C180.321 5.90625 181.737 6.49626 182.835 7.67627C183.934 8.85628 184.483 10.5164 184.483 12.6567C184.483 12.7869 184.479 12.9823 184.471 13.2427H174.803C174.885 14.6668 175.287 15.7573 176.012 16.5142C176.736 17.271 177.639 17.6494 178.722 17.6494C179.527 17.6494 180.215 17.4378 180.785 17.0146C181.354 16.5915 181.806 15.916 182.14 14.9883ZM174.925 11.436H182.164C182.066 10.3455 181.79 9.52767 181.334 8.98242C180.634 8.13607 179.727 7.71289 178.612 7.71289C177.603 7.71289 176.752 8.05062 176.061 8.72607C175.377 9.40153 174.999 10.3049 174.925 11.436ZM187.931 19.1631V6.19922H189.909V8.04248C190.861 6.61833 192.236 5.90625 194.035 5.90625C194.816 5.90625 195.532 6.04867 196.183 6.3335C196.842 6.61019 197.335 6.9764 197.66 7.43213C197.986 7.88786 198.214 8.42904 198.344 9.05566C198.425 9.46257 198.466 10.1746 198.466 11.1919V19.1631H196.269V11.2773C196.269 10.3822 196.183 9.71484 196.012 9.27539C195.841 8.8278 195.536 8.4738 195.097 8.21338C194.665 7.94482 194.157 7.81055 193.571 7.81055C192.635 7.81055 191.825 8.10758 191.142 8.70166C190.466 9.29574 190.128 10.4229 190.128 12.083V19.1631H187.931ZM202.609 3.79443V1.26758H204.807V3.79443H202.609ZM202.609 19.1631V6.19922H204.807V19.1631H202.609ZM217.788 14.9883L220.059 15.269C219.701 16.5955 219.037 17.625 218.069 18.3574C217.1 19.0898 215.863 19.4561 214.358 19.4561C212.462 19.4561 210.956 18.8742 209.841 17.7104C208.735 16.5386 208.181 14.8988 208.181 12.791C208.181 10.61 208.743 8.91732 209.866 7.71289C210.989 6.50846 212.445 5.90625 214.236 5.90625C215.969 5.90625 217.385 6.49626 218.484 7.67627C219.583 8.85628 220.132 10.5164 220.132 12.6567C220.132 12.7869 220.128 12.9823 220.12 13.2427H210.452C210.533 14.6668 210.936 15.7573 211.66 16.5142C212.384 17.271 213.288 17.6494 214.37 17.6494C215.176 17.6494 215.863 17.4378 216.433 17.0146C217.003 16.5915 217.454 15.916 217.788 14.9883ZM210.574 11.436H217.812C217.715 10.3455 217.438 9.52767 216.982 8.98242C216.283 8.13607 215.375 7.71289 214.26 7.71289C213.251 7.71289 212.401 8.05062 211.709 8.72607C211.025 9.40153 210.647 10.3049 210.574 11.436ZM232.076 19.1631V17.2588C231.067 18.7236 229.695 19.4561 227.962 19.4561C227.197 19.4561 226.481 19.3096 225.813 19.0166C225.154 18.7236 224.662 18.3574 224.336 17.918C224.019 17.4704 223.795 16.9251 223.665 16.2822C223.576 15.8509 223.531 15.1673 223.531 14.2314V6.19922H225.728V13.3892C225.728 14.5366 225.773 15.3097 225.862 15.7085C226.001 16.2863 226.294 16.742 226.741 17.0757C227.189 17.4012 227.742 17.564 228.401 17.564C229.061 17.564 229.679 17.3971 230.257 17.0635C230.835 16.7217 231.242 16.2619 231.478 15.6841C231.722 15.0981 231.844 14.2518 231.844 13.145V6.19922H234.041V19.1631H232.076ZM238.221 19.1631V6.19922H240.199V8.16455C240.703 7.24495 241.167 6.63867 241.59 6.3457C242.022 6.05273 242.494 5.90625 243.006 5.90625C243.747 5.90625 244.5 6.14225 245.265 6.61426L244.508 8.65283C243.971 8.33545 243.434 8.17676 242.896 8.17676C242.416 8.17676 241.985 8.32324 241.603 8.61621C241.22 8.90104 240.947 9.2998 240.785 9.8125C240.541 10.5938 240.418 11.4482 240.418 12.376V19.1631H238.221ZM249.713 19.1631L245.746 6.19922H248.017L250.08 13.6821L250.849 16.4653C250.881 16.327 251.105 15.4359 251.52 13.792L253.583 6.19922H255.841L257.782 13.7188L258.429 16.1968L259.174 13.6943L261.396 6.19922H263.532L259.479 19.1631H257.196L255.133 11.3994L254.633 9.18994L252.008 19.1631H249.713ZM275.012 14.9883L277.282 15.269C276.924 16.5955 276.261 17.625 275.292 18.3574C274.324 19.0898 273.087 19.4561 271.582 19.4561C269.685 19.4561 268.18 18.8742 267.065 17.7104C265.958 16.5386 265.405 14.8988 265.405 12.791C265.405 10.61 265.966 8.91732 267.089 7.71289C268.212 6.50846 269.669 5.90625 271.459 5.90625C273.193 5.90625 274.609 6.49626 275.708 7.67627C276.806 8.85628 277.355 10.5164 277.355 12.6567C277.355 12.7869 277.351 12.9823 277.343 13.2427H267.675C267.757 14.6668 268.16 15.7573 268.884 16.5142C269.608 17.271 270.511 17.6494 271.594 17.6494C272.399 17.6494 273.087 17.4378 273.657 17.0146C274.226 16.5915 274.678 15.916 275.012 14.9883ZM267.797 11.436H275.036C274.938 10.3455 274.662 9.52767 274.206 8.98242C273.506 8.13607 272.599 7.71289 271.484 7.71289C270.475 7.71289 269.624 8.05062 268.933 8.72607C268.249 9.40153 267.871 10.3049 267.797 11.436ZM279.924 15.2935L282.097 14.9517C282.219 15.8224 282.557 16.4897 283.11 16.9536C283.672 17.4175 284.453 17.6494 285.454 17.6494C286.463 17.6494 287.212 17.446 287.7 17.0391C288.188 16.624 288.433 16.1398 288.433 15.5864C288.433 15.09 288.217 14.6994 287.786 14.4146C287.485 14.2192 286.736 13.971 285.54 13.6699C283.928 13.263 282.809 12.9131 282.183 12.6201C281.564 12.319 281.092 11.908 280.767 11.3872C280.449 10.8582 280.291 10.2764 280.291 9.6416C280.291 9.0638 280.421 8.53076 280.681 8.04248C280.95 7.54606 281.312 7.13509 281.768 6.80957C282.109 6.55729 282.573 6.3457 283.159 6.1748C283.753 5.99577 284.388 5.90625 285.063 5.90625C286.081 5.90625 286.972 6.05273 287.737 6.3457C288.51 6.63867 289.08 7.03743 289.446 7.54199C289.812 8.03841 290.064 8.70573 290.203 9.54395L288.054 9.83691C287.957 9.1696 287.672 8.64876 287.2 8.27441C286.736 7.90007 286.077 7.71289 285.222 7.71289C284.213 7.71289 283.493 7.87972 283.062 8.21338C282.63 8.54704 282.415 8.93766 282.415 9.38525C282.415 9.67008 282.504 9.92643 282.683 10.1543C282.862 10.3903 283.143 10.5856 283.525 10.7402C283.745 10.8216 284.392 11.0088 285.466 11.3018C287.021 11.7168 288.103 12.0586 288.713 12.3271C289.332 12.5876 289.816 12.9701 290.166 13.4746C290.516 13.9792 290.691 14.6058 290.691 15.3545C290.691 16.0869 290.475 16.7786 290.044 17.4297C289.621 18.0726 289.006 18.5731 288.201 18.9312C287.395 19.2811 286.484 19.4561 285.466 19.4561C283.782 19.4561 282.496 19.1061 281.609 18.4062C280.73 17.7064 280.168 16.6688 279.924 15.2935ZM302.928 14.9883L305.198 15.269C304.84 16.5955 304.177 17.625 303.208 18.3574C302.24 19.0898 301.003 19.4561 299.498 19.4561C297.601 19.4561 296.096 18.8742 294.981 17.7104C293.874 16.5386 293.321 14.8988 293.321 12.791C293.321 10.61 293.882 8.91732 295.005 7.71289C296.128 6.50846 297.585 5.90625 299.375 5.90625C301.109 5.90625 302.525 6.49626 303.624 7.67627C304.722 8.85628 305.271 10.5164 305.271 12.6567C305.271 12.7869 305.267 12.9823 305.259 13.2427H295.591C295.673 14.6668 296.076 15.7573 296.8 16.5142C297.524 17.271 298.427 17.6494 299.51 17.6494C300.315 17.6494 301.003 17.4378 301.573 17.0146C302.142 16.5915 302.594 15.916 302.928 14.9883ZM295.713 11.436H302.952C302.854 10.3455 302.578 9.52767 302.122 8.98242C301.422 8.13607 300.515 7.71289 299.4 7.71289C298.391 7.71289 297.54 8.05062 296.849 8.72607C296.165 9.40153 295.787 10.3049 295.713 11.436ZM308.719 19.1631V6.19922H310.697V8.04248C311.649 6.61833 313.024 5.90625 314.823 5.90625C315.604 5.90625 316.32 6.04867 316.971 6.3335C317.63 6.61019 318.123 6.9764 318.448 7.43213C318.774 7.88786 319.002 8.42904 319.132 9.05566C319.213 9.46257 319.254 10.1746 319.254 11.1919V19.1631H317.057V11.2773C317.057 10.3822 316.971 9.71484 316.8 9.27539C316.629 8.8278 316.324 8.4738 315.885 8.21338C315.453 7.94482 314.945 7.81055 314.359 7.81055C313.423 7.81055 312.613 8.10758 311.93 8.70166C311.254 9.29574 310.917 10.4229 310.917 12.083V19.1631H308.719Z" fill="white"/>
</g>
<defs>
<filter id="filter0_d_73_550" x="0.318359" y="0.962402" width="322.936" height="31.4619" filterUnits="userSpaceOnUse" color-interpolation-filters="sRGB">
<feFlood flood-opacity="0" result="BackgroundImageFix"/>
<feColorMatrix in="SourceAlpha" type="matrix" values="0 0 0 0 0 0 0 0 0 0 0 0 0 0 0 0 0 0 127 0" result="hardAlpha"/>
<feOffset dy="4"/>
<feGaussianBlur stdDeviation="2"/>
<feComposite in2="hardAlpha" operator="out"/>
<feColorMatrix type="matrix" values="0 0 0 0 0 0 0 0 0 0 0 0 0 0 0 0 0 0 0.25 0"/>
<feBlend mode="normal" in2="BackgroundImageFix" result="effect1_dropShadow_73_550"/>
<feBlend mode="normal" in="SourceGraphic" in2="effect1_dropShadow_73_550" result="shape"/>
</filter>
</defs>
</svg>
