<svg width="385" height="191" viewBox="0 0 385 191" fill="none" xmlns="http://www.w3.org/2000/svg">
<g clip-path="url(#clip0_73_425)">
<path d="M59.0812 166.643H25.6565C11.5357 166.643 0.0478516 155.155 0.0478516 141.032C0.0478516 131.223 6.43526 121.041 15.2383 116.821L16.5772 116.181V114.693C16.5772 114.393 16.5961 114.089 16.6126 113.782L16.6339 113.404L16.6055 112.908C16.5914 112.717 16.5772 112.526 16.5772 112.332C16.5772 103.22 23.9941 95.8026 33.1065 95.8026C33.8362 95.8026 34.5564 95.8664 35.2719 95.9609C35.456 95.9845 35.6402 96.0152 35.8221 96.0459C36.4525 96.1498 37.0736 96.2867 37.6851 96.4638C37.7678 96.4874 37.8528 96.504 37.9354 96.5276C38.6084 96.733 39.2649 96.9928 39.9072 97.2856C40.0748 97.3611 40.2377 97.4438 40.403 97.5241C40.9698 97.8051 41.5247 98.112 42.0607 98.4591C46.611 101.406 49.6359 106.518 49.6359 112.332C49.6359 113.638 50.6914 114.693 51.9972 114.693C53.303 114.693 54.3585 113.638 54.3585 112.332C54.3585 105.829 51.4163 100.008 46.8023 96.1073C53.5722 87.2523 64.72 81.6346 75.8112 81.6346C94.0998 81.6346 109.288 96.1214 110.872 114.429C108.459 114.259 104.846 114.171 101.231 114.722C99.9417 114.918 99.0562 116.122 99.2522 117.411C99.4293 118.58 100.435 119.418 101.583 119.418C101.701 119.418 101.821 119.409 101.939 119.39C107.198 118.594 112.679 119.34 113 119.385C123.994 121.475 132.283 131.603 132.283 142.963C132.283 156.019 121.659 166.643 108.603 166.643H77.9719H59.0812Z" fill="white"/>
</g>
<g clip-path="url(#clip1_73_425)">
<path d="M212.905 161.245H179.481C165.36 161.245 153.872 149.757 153.872 135.634C153.872 125.825 160.259 115.643 169.063 111.424L170.401 110.784V109.296C170.401 108.996 170.42 108.691 170.437 108.384L170.458 108.007L170.43 107.511C170.416 107.32 170.401 107.128 170.401 106.935C170.401 97.8223 177.818 90.4053 186.931 90.4053C187.66 90.4053 188.381 90.4691 189.096 90.5635C189.28 90.5871 189.464 90.6178 189.646 90.6485C190.277 90.7524 190.898 90.8894 191.509 91.0665C191.592 91.0901 191.677 91.1066 191.76 91.1302C192.433 91.3357 193.089 91.5954 193.731 91.8882C193.899 91.9638 194.062 92.0464 194.227 92.1267C194.794 92.4077 195.349 92.7147 195.885 93.0618C200.435 96.0087 203.46 101.121 203.46 106.935C203.46 108.24 204.516 109.296 205.821 109.296C207.127 109.296 208.183 108.24 208.183 106.935C208.183 100.432 205.241 94.6108 200.626 90.7099C207.396 81.8549 218.544 76.2373 229.635 76.2373C247.924 76.2373 263.112 90.7241 264.697 109.032C262.283 108.861 258.67 108.774 255.055 109.324C253.766 109.52 252.88 110.725 253.076 112.014C253.254 113.183 254.259 114.021 255.407 114.021C255.525 114.021 255.646 114.012 255.764 113.993C261.022 113.197 266.503 113.943 266.824 113.988C277.818 116.078 286.107 126.205 286.107 137.566C286.107 150.622 275.483 161.245 262.427 161.245H231.796H212.905Z" fill="white"/>
</g>
<g clip-path="url(#clip2_73_425)">
<path d="M146.788 136.957H113.364C99.2428 136.957 87.7549 125.469 87.7549 111.346C87.7549 101.537 94.1423 91.3553 102.945 87.1356L104.284 86.4956V85.008C104.284 84.7081 104.303 84.4035 104.32 84.0965L104.341 83.7187L104.313 83.2228C104.298 83.0316 104.284 82.8403 104.284 82.6467C104.284 73.5343 111.701 66.1173 120.814 66.1173C121.543 66.1173 122.263 66.1811 122.979 66.2755C123.163 66.2992 123.347 66.3299 123.529 66.3606C124.16 66.4645 124.781 66.6014 125.392 66.7785C125.475 66.8021 125.56 66.8187 125.642 66.8423C126.315 67.0477 126.972 67.3075 127.614 67.6003C127.782 67.6758 127.945 67.7585 128.11 67.8388C128.677 68.1198 129.232 68.4267 129.768 68.7738C134.318 71.7208 137.343 76.8331 137.343 82.6467C137.343 83.9525 138.398 85.008 139.704 85.008C141.01 85.008 142.066 83.9525 142.066 82.6467C142.066 76.1436 139.123 70.3229 134.509 66.422C141.279 57.567 152.427 51.9493 163.518 51.9493C181.807 51.9493 196.995 66.4361 198.579 84.7435C196.166 84.5735 192.553 84.4861 188.938 85.0363C187.649 85.2323 186.763 86.4366 186.959 87.7259C187.136 88.8948 188.142 89.733 189.29 89.733C189.408 89.733 189.528 89.7236 189.646 89.7047C194.905 88.9089 200.386 89.6551 200.707 89.7C211.701 91.7898 219.99 101.918 219.99 113.278C219.99 126.334 209.366 136.957 196.31 136.957H165.679H146.788Z" fill="white"/>
</g>
<g clip-path="url(#clip3_73_425)">
<path d="M235.844 108.621H202.419C188.298 108.621 176.811 97.1334 176.811 83.0103C176.811 73.2013 183.198 63.0192 192.001 58.7995L193.34 58.1596V56.6719C193.34 56.3721 193.359 56.0674 193.375 55.7605L193.397 55.3827L193.368 54.8868C193.354 54.6955 193.34 54.5042 193.34 54.3106C193.34 45.1982 200.757 37.7813 209.869 37.7813C210.599 37.7813 211.319 37.845 212.035 37.9395C212.219 37.9631 212.403 37.9938 212.585 38.0245C213.215 38.1284 213.836 38.2654 214.448 38.4425C214.53 38.4661 214.615 38.4826 214.698 38.5062C215.371 38.7116 216.028 38.9714 216.67 39.2642C216.838 39.3398 217 39.4224 217.166 39.5027C217.732 39.7837 218.287 40.0907 218.823 40.4378C223.374 43.3847 226.399 48.497 226.399 54.3106C226.399 55.6164 227.454 56.6719 228.76 56.6719C230.066 56.6719 231.121 55.6164 231.121 54.3106C231.121 47.8075 228.179 41.9868 223.565 38.0859C230.335 29.2309 241.483 23.6133 252.574 23.6133C270.862 23.6133 286.051 38.1001 287.635 56.4075C285.222 56.2375 281.609 56.1501 277.994 56.7003C276.704 56.8963 275.819 58.1005 276.015 59.3898C276.192 60.5587 277.198 61.397 278.346 61.397C278.464 61.397 278.584 61.3875 278.702 61.3686C283.961 60.5729 289.441 61.319 289.763 61.3639C300.757 63.4537 309.045 73.5815 309.045 84.9418C309.045 97.9976 298.422 108.621 285.366 108.621H254.735H235.844Z" fill="white"/>
</g>
<g clip-path="url(#clip4_73_425)">
<path d="M311.406 141.005H277.982C263.861 141.005 252.373 129.517 252.373 115.394C252.373 105.585 258.76 95.4032 267.564 91.1835L268.902 90.5436V89.056C268.902 88.7561 268.921 88.4515 268.938 88.1445L268.959 87.7667L268.931 87.2708C268.917 87.0795 268.902 86.8883 268.902 86.6946C268.902 77.5823 276.319 70.1653 285.432 70.1653C286.161 70.1653 286.882 70.2291 287.597 70.3235C287.781 70.3471 287.965 70.3778 288.147 70.4085C288.778 70.5124 289.399 70.6494 290.01 70.8265C290.093 70.8501 290.178 70.8666 290.261 70.8902C290.934 71.0957 291.59 71.3554 292.232 71.6482C292.4 71.7238 292.563 71.8064 292.728 71.8867C293.295 72.1677 293.85 72.4747 294.386 72.8218C298.936 75.7688 301.961 80.881 301.961 86.6946C301.961 88.0005 303.017 89.056 304.322 89.056C305.628 89.056 306.684 88.0005 306.684 86.6946C306.684 80.1915 303.741 74.3708 299.127 70.4699C305.897 61.6149 317.045 55.9973 328.136 55.9973C346.425 55.9973 361.613 70.4841 363.198 88.7915C360.784 88.6215 357.171 88.5341 353.556 89.0843C352.267 89.2803 351.381 90.4846 351.577 91.7739C351.754 92.9427 352.76 93.781 353.908 93.781C354.026 93.781 354.147 93.7716 354.265 93.7527C359.523 92.9569 365.004 93.7031 365.325 93.7479C376.319 95.8377 384.608 105.965 384.608 117.326C384.608 130.382 373.984 141.005 360.928 141.005H330.297H311.406Z" fill="white"/>
</g>
<defs>
<clipPath id="clip0_73_425">
<rect width="132.235" height="132.235" fill="white" transform="translate(0.0478516 58.0214)"/>
</clipPath>
<clipPath id="clip1_73_425">
<rect width="132.235" height="132.235" fill="white" transform="translate(153.872 52.624)"/>
</clipPath>
<clipPath id="clip2_73_425">
<rect width="132.235" height="132.235" fill="white" transform="translate(87.7549 28.3361)"/>
</clipPath>
<clipPath id="clip3_73_425">
<rect width="132.235" height="132.235" fill="white" transform="translate(176.811)"/>
</clipPath>
<clipPath id="clip4_73_425">
<rect width="132.235" height="132.235" fill="white" transform="translate(252.373 32.384)"/>
</clipPath>
</defs>
</svg>
